<svg xmlns="http://www.w3.org/2000/svg" viewBox="0 0 1440 120" class="wavy-line">
  <path d="M0,64L48,69.3C96,75,192,85,288,80C384,75,480,53,576,48C672,43,768,53,864,69.3C960,85,1056,107,1152,106.7C1248,107,1344,85,1392,74.7L1440,64L1440,120L1392,120C1344,120,1248,120,1152,120C1056,120,960,120,864,120C768,120,672,120,576,120C480,120,384,120,288,120C192,120,96,120,48,120L0,120Z" fill="rgb(73, 120, 57)" opacity="0.2"></path>
  <path d="M0,96L48,90.7C96,85,192,75,288,80C384,85,480,107,576,101.3C672,96,768,64,864,58.7C960,53,1056,75,1152,74.7C1248,75,1344,53,1392,42.7L1440,32L1440,120L1392,120C1344,120,1248,120,1152,120C1056,120,960,120,864,120C768,120,672,120,576,120C480,120,384,120,288,120C192,120,96,120,48,120L0,120Z" fill="rgb(73, 120, 57)" opacity="0.3"></path>
  <path d="M0,32L48,48C96,64,192,96,288,96C384,96,480,64,576,58.7C672,53,768,75,864,85.3C960,96,1056,96,1152,80C1248,64,1344,32,1392,16L1440,0L1440,120L1392,120C1344,120,1248,120,1152,120C1056,120,960,120,864,120C768,120,672,120,576,120C480,120,384,120,288,120C192,120,96,120,48,120L0,120Z" fill="rgb(73, 120, 57)" opacity="0.1"></path>
  <style>
    .wavy-line path {
      animation: wave 10s infinite ease-in-out;
    }
    .wavy-line path:nth-child(2) {
      animation-delay: 2s;
    }
    .wavy-line path:nth-child(3) {
      animation-delay: 4s;
    }
    @keyframes wave {
      0%, 100% {
        d: path('M0,64L48,69.3C96,75,192,85,288,80C384,75,480,53,576,48C672,43,768,53,864,69.3C960,85,1056,107,1152,106.7C1248,107,1344,85,1392,74.7L1440,64L1440,120L1392,120C1344,120,1248,120,1152,120C1056,120,960,120,864,120C768,120,672,120,576,120C480,120,384,120,288,120C192,120,96,120,48,120L0,120Z');
      }
      50% {
        d: path('M0,32L48,42.7C96,53,192,75,288,85.3C384,96,480,96,576,80C672,64,768,32,864,37.3C960,43,1056,85,1152,90.7C1248,96,1344,64,1392,48L1440,32L1440,120L1392,120C1344,120,1248,120,1152,120C1056,120,960,120,864,120C768,120,672,120,576,120C480,120,384,120,288,120C192,120,96,120,48,120L0,120Z');
      }
    }
  </style>
</svg>