<?xml version="1.0" encoding="UTF-8"?>
<!DOCTYPE svg PUBLIC "-//W3C//DTD SVG 1.1//EN" "http://www.w3.org/Graphics/SVG/1.1/DTD/svg11.dtd">
<svg xmlns="http://www.w3.org/2000/svg" version="1.1" width="598px" height="285px" style="shape-rendering:geometricPrecision; text-rendering:geometricPrecision; image-rendering:optimizeQuality; fill-rule:evenodd; clip-rule:evenodd" xmlns:xlink="http://www.w3.org/1999/xlink">
<g><path style="opacity:0.035" fill="#e3e0d8" d="M 96.5,32.5 C 99.1347,34.3392 100.468,37.0058 100.5,40.5C 98.6567,38.1469 97.3234,35.4802 96.5,32.5 Z"/></g>
<g><path style="opacity:0.433" fill="#423a32" d="M 315.5,32.5 C 358.5,32.5 401.5,32.5 444.5,32.5C 444.803,37.43 444.469,42.2633 443.5,47C 437.675,46.4018 432.008,45.2352 426.5,43.5C 431.833,43.8333 437.167,44.1667 442.5,44.5C 442.751,41.091 442.417,37.7577 441.5,34.5C 400.833,33.1667 360.167,33.1667 319.5,34.5C 316.854,37.3715 316.021,40.7048 317,44.5C 318.699,45.4061 320.533,45.7394 322.5,45.5C 321.081,46.4511 319.415,46.7845 317.5,46.5C 315.564,42.2853 314.897,37.6186 315.5,32.5 Z"/></g>
<g><path style="opacity:0.037" fill="#f0ebe4" d="M 86.5,34.5 C 86.0075,36.8185 85.0075,38.8185 83.5,40.5C 83.3862,37.784 84.3862,35.784 86.5,34.5 Z"/></g>
<g><path style="opacity:0.984" fill="#716c60" d="M 260.5,33.5 C 263.829,33.2153 266.829,33.8819 269.5,35.5C 266.123,35.9321 263.123,35.2655 260.5,33.5 Z"/></g>
<g><path style="opacity:1" fill="#2b1909" d="M 426.5,43.5 C 426.167,43.5 425.833,43.5 425.5,43.5C 413.678,42.5049 401.678,42.1716 389.5,42.5C 389.565,42.0618 389.399,41.7284 389,41.5C 388.228,42.8491 387.061,43.6824 385.5,44C 386.774,44.9772 386.774,45.8106 385.5,46.5C 385.217,45.7109 384.717,45.0442 384,44.5C 381.757,46.282 379.257,46.782 376.5,46C 375.62,44.6439 375.286,43.1439 375.5,41.5C 374.912,40.2181 373.079,39.2181 370,38.5C 368.538,38.9938 367.038,39.3272 365.5,39.5C 359.8,38.9342 354.133,38.2675 348.5,37.5C 343.63,38.796 339.296,40.796 335.5,43.5C 331.21,44.4245 326.876,45.0912 322.5,45.5C 320.533,45.7394 318.699,45.4061 317,44.5C 316.021,40.7048 316.854,37.3715 319.5,34.5C 360.167,33.1667 400.833,33.1667 441.5,34.5C 442.417,37.7577 442.751,41.091 442.5,44.5C 437.167,44.1667 431.833,43.8333 426.5,43.5 Z"/></g>
<g><path style="opacity:1" fill="#2b1807" d="M 249.5,33.5 C 252.734,34.2598 255.901,35.2598 259,36.5C 259.667,37.5 259.667,38.5 259,39.5C 258.086,38.3463 257.253,38.513 256.5,40C 258.595,40.5556 258.762,41.0556 257,41.5C 255.441,40.9706 253.941,40.304 252.5,39.5C 251.284,40.0016 250.117,40.3349 249,40.5C 246.085,39.6233 243.085,38.9566 240,38.5C 233.191,39.2395 226.357,39.7395 219.5,40C 218.058,40.3768 217.058,41.2101 216.5,42.5C 214.833,42.5 213.167,42.5 211.5,42.5C 211.169,64.673 211.503,86.673 212.5,108.5C 220.833,108.5 229.167,108.5 237.5,108.5C 241.958,107.372 246.625,107.372 251.5,108.5C 251.439,110.592 250.439,112.092 248.5,113C 251.167,113.667 251.167,114.333 248.5,115C 250.014,116.439 250.347,117.939 249.5,119.5C 250.213,121.776 250.713,124.109 251,126.5C 252.367,125.476 253.2,125.976 253.5,128C 251.646,129.29 251.313,130.79 252.5,132.5C 250.672,135.013 248.339,136.679 245.5,137.5C 245.5,136.5 245.5,135.5 245.5,134.5C 243.708,134.634 242.042,134.301 240.5,133.5C 239.326,132.486 238.66,131.153 238.5,129.5C 239.536,124.376 237.536,121.21 232.5,120C 233.833,119.333 233.833,118.667 232.5,118C 225.737,116.274 219.07,116.107 212.5,117.5C 211.052,119.51 209.719,121.677 208.5,124C 209.308,124.308 209.975,124.808 210.5,125.5C 209.667,127.167 208.833,128.833 208,130.5C 207.803,135.086 207.303,139.586 206.5,144C 207.824,159.77 207.824,175.603 206.5,191.5C 205.692,191.808 205.025,192.308 204.5,193C 205.833,194 205.833,195 204.5,196C 202.359,195.914 200.026,196.081 197.5,196.5C 195.602,190.659 195.102,184.659 196,178.5C 196.635,177.034 197.469,175.7 198.5,174.5C 196.577,169.319 195.244,163.986 194.5,158.5C 195.648,151.727 196.648,144.727 197.5,137.5C 197.589,133.715 197.089,130.048 196,126.5C 195.333,99.8333 195.333,73.1667 196,46.5C 196.5,45.5 197,44.5 197.5,43.5C 195.545,41.3316 194.879,38.9983 195.5,36.5C 197.881,34.2313 200.381,34.2313 203,36.5C 203.956,35.1059 205.289,34.4393 207,34.5C 219.873,34.3356 232.706,34.669 245.5,35.5C 249.899,35.4717 250.232,34.9717 246.5,34C 247.448,33.5172 248.448,33.3505 249.5,33.5 Z"/></g>
<g><path style="opacity:0.039" fill="#ece5dc" d="M 506.5,34.5 C 508.448,36.3204 509.448,38.6538 509.5,41.5C 507.935,39.4907 506.935,37.1573 506.5,34.5 Z"/></g>
<g><path style="opacity:1" fill="#2b1c11" d="M 191.5,32.5 C 210.833,32.5 230.167,32.5 249.5,32.5C 249.5,32.8333 249.5,33.1667 249.5,33.5C 248.448,33.3505 247.448,33.5172 246.5,34C 250.232,34.9717 249.899,35.4717 245.5,35.5C 232.706,34.669 219.873,34.3356 207,34.5C 205.289,34.4393 203.956,35.1059 203,36.5C 200.381,34.2313 197.881,34.2313 195.5,36.5C 194.879,38.9983 195.545,41.3316 197.5,43.5C 197,44.5 196.5,45.5 196,46.5C 195.333,73.1667 195.333,99.8333 196,126.5C 197.089,130.048 197.589,133.715 197.5,137.5C 196.648,144.727 195.648,151.727 194.5,158.5C 195.244,163.986 196.577,169.319 198.5,174.5C 197.469,175.7 196.635,177.034 196,178.5C 195.102,184.659 195.602,190.659 197.5,196.5C 200.026,196.081 202.359,195.914 204.5,196C 205.833,195 205.833,194 204.5,193C 205.025,192.308 205.692,191.808 206.5,191.5C 207.824,175.603 207.824,159.77 206.5,144C 207.303,139.586 207.803,135.086 208,130.5C 208.833,128.833 209.667,127.167 210.5,125.5C 209.975,124.808 209.308,124.308 208.5,124C 209.719,121.677 211.052,119.51 212.5,117.5C 212.5,144.5 212.5,171.5 212.5,198.5C 205.5,198.5 198.5,198.5 191.5,198.5C 191.5,143.167 191.5,87.8333 191.5,32.5 Z"/></g>
<g><path style="opacity:1" fill="#a8a29c" d="M 495.5,32.5 C 495.397,35.6358 494.397,38.3025 492.5,40.5C 492.733,37.4582 493.733,34.7916 495.5,32.5 Z"/></g>
<g><path style="opacity:0.012" fill="#f1efec" d="M 100.5,40.5 C 102.104,41.287 102.771,42.6203 102.5,44.5C 100.896,43.713 100.229,42.3797 100.5,40.5 Z"/></g>
<g><path style="opacity:0.78" fill="#9f998f" d="M 282.5,40.5 C 284.754,41.1237 286.421,42.457 287.5,44.5C 285.205,43.8645 283.539,42.5311 282.5,40.5 Z"/></g>
<g><path style="opacity:0.722" fill="#aea9a4" d="M 315.5,32.5 C 314.897,37.6186 315.564,42.2853 317.5,46.5C 316.791,47.404 315.791,47.7373 314.5,47.5C 314.719,42.5147 314.385,37.6814 313.5,33C 314.094,32.5357 314.761,32.369 315.5,32.5 Z"/></g>
<g><path style="opacity:0.459" fill="#7b7363" d="M 389.5,42.5 C 401.678,42.1716 413.678,42.5049 425.5,43.5C 413.42,43.1881 401.42,43.5214 389.5,44.5C 389.5,43.8333 389.5,43.1667 389.5,42.5 Z"/></g>
<g><path style="opacity:0.027" fill="#e5e3d3" d="M 492.5,40.5 C 492.34,42.153 491.674,43.4863 490.5,44.5C 490.229,42.6203 490.896,41.287 492.5,40.5 Z"/></g>
<g><path style="opacity:0.678" fill="#a49c95" d="M 287.5,44.5 C 289.587,45.5846 290.92,47.2512 291.5,49.5C 289.413,48.4154 288.08,46.7488 287.5,44.5 Z"/></g>
<g><path style="opacity:1" fill="#958c88" d="M 82.5,43.5 C 82.5449,46.0772 81.5449,48.0772 79.5,49.5C 79.6535,47.0301 80.6535,45.0301 82.5,43.5 Z"/></g>
<g><path style="opacity:1" fill="#2a190a" d="M 385.5,46.5 C 385.847,50.0958 385.18,53.4291 383.5,56.5C 383.719,57.938 384.219,59.2713 385,60.5C 384.845,105.649 385.678,150.649 387.5,195.5C 386.66,196.735 385.66,197.735 384.5,198.5C 379.167,198.5 373.833,198.5 368.5,198.5C 369.162,146.489 368.496,94.8226 366.5,43.5C 356.167,43.5 345.833,43.5 335.5,43.5C 339.296,40.796 343.63,38.796 348.5,37.5C 354.133,38.2675 359.8,38.9342 365.5,39.5C 367.038,39.3272 368.538,38.9938 370,38.5C 373.079,39.2181 374.912,40.2181 375.5,41.5C 375.286,43.1439 375.62,44.6439 376.5,46C 379.257,46.782 381.757,46.282 384,44.5C 384.717,45.0442 385.217,45.7109 385.5,46.5 Z"/></g>
<g><path style="opacity:0.999" fill="#2d1c10" d="M 96.5,32.5 C 97.3234,35.4802 98.6567,38.1469 100.5,40.5C 100.229,42.3797 100.896,43.713 102.5,44.5C 102.077,46.7812 102.744,48.4479 104.5,49.5C 105.441,51.0495 106.107,52.7162 106.5,54.5C 105.233,53.913 104.233,53.913 103.5,54.5C 102.87,57.6389 103.537,60.6389 105.5,63.5C 105.167,64.1667 104.833,64.8333 104.5,65.5C 102.979,65.8797 101.313,66.0464 99.5,66C 95.7396,67.4265 93.4063,70.0932 92.5,74C 93.7376,73.9227 94.7376,74.0894 95.5,74.5C 94.1468,75.5237 93.4802,76.857 93.5,78.5C 92.2616,76.7857 91.595,74.7857 91.5,72.5C 91.0679,71.2905 90.4013,70.2905 89.5,69.5C 87.916,60.984 85.916,60.6507 83.5,68.5C 82.4415,69.6002 81.6082,70.9336 81,72.5C 80.6667,72.1667 80.3333,71.8333 80,71.5C 79.5304,72.5768 79.6971,73.5768 80.5,74.5C 80.7373,75.791 80.404,76.791 79.5,77.5C 77.7962,80.2558 76.4629,83.2558 75.5,86.5C 75.2041,88.403 74.5375,90.0697 73.5,91.5C 71.744,92.5521 71.0773,94.2188 71.5,96.5C 70.6772,98.9872 69.6772,101.321 68.5,103.5C 66.9925,105.181 65.9925,107.181 65.5,109.5C 63.8679,110.446 62.2012,111.446 60.5,112.5C 59.6764,115.785 59.1764,119.118 59,122.5C 58,120.5 57,118.5 56,116.5C 55.6937,120.796 55.0271,125.129 54,129.5C 53,129.833 52,130.167 51,130.5C 49.1049,128.565 49.4382,126.898 52,125.5C 52.5815,121.005 53.7481,116.672 55.5,112.5C 54.1413,110.694 54.4746,109.194 56.5,108C 55.4639,106.224 55.4639,104.391 56.5,102.5C 57.4491,97.2803 59.4491,92.6136 62.5,88.5C 64.2132,87.3646 64.8799,85.698 64.5,83.5C 65.6737,82.4863 66.3404,81.153 66.5,79.5C 66.7959,77.597 67.4625,75.9303 68.5,74.5C 70.0075,72.8185 71.0075,70.8185 71.5,68.5C 71.7959,66.597 72.4625,64.9303 73.5,63.5C 75.8337,61.8243 76.8337,59.491 76.5,56.5C 76.8333,55.8333 77.1667,55.1667 77.5,54.5C 78.9313,53.2196 79.5979,51.5529 79.5,49.5C 81.5449,48.0772 82.5449,46.0772 82.5,43.5C 82.2627,42.209 82.596,41.209 83.5,40.5C 85.0075,38.8185 86.0075,36.8185 86.5,34.5C 86.5774,33.2502 87.244,32.4169 88.5,32C 91.367,31.1993 94.0336,31.3659 96.5,32.5 Z"/></g>
<g><path style="opacity:1" fill="#94908a" d="M 490.5,44.5 C 490.88,46.698 490.213,48.3646 488.5,49.5C 488.402,47.4471 489.069,45.7804 490.5,44.5 Z"/></g>
<g><path style="opacity:0.984" fill="#918a83" d="M 102.5,44.5 C 103.537,45.9303 104.204,47.597 104.5,49.5C 102.744,48.4479 102.077,46.7812 102.5,44.5 Z"/></g>
<g><path style="opacity:0.22" fill="#dfd9d4" d="M 79.5,49.5 C 79.5979,51.5529 78.9313,53.2196 77.5,54.5C 77.4021,52.4471 78.0687,50.7804 79.5,49.5 Z"/></g>
<g><path style="opacity:1" fill="#2c1706" d="M 294.5,79.5 C 294.567,80.9587 294.234,82.2921 293.5,83.5C 292.024,82.2665 290.357,81.2665 288.5,80.5C 286.912,81.0096 285.745,82.0096 285,83.5C 284.667,83.1667 284.333,82.8333 284,82.5C 283.79,83.8029 283.957,85.1362 284.5,86.5C 283.225,88.2579 282.225,89.9246 281.5,91.5C 282.167,92.5 282.833,93.5 283.5,94.5C 281.138,95.2715 278.804,96.1048 276.5,97C 278.01,100.326 277.01,101.993 273.5,102C 274.458,100.853 274.125,99.8525 272.5,99C 273.167,98.6667 273.833,98.3333 274.5,98C 271.137,96.0988 270.637,93.5988 273,90.5C 274.918,89.4582 276.751,88.2915 278.5,87C 278.043,86.586 277.709,86.086 277.5,85.5C 279.994,76.2309 280.161,66.8976 278,57.5C 276.379,54.3802 274.212,51.7135 271.5,49.5C 272.262,49.0894 273.262,48.9227 274.5,49C 270.711,46.851 271.045,45.0176 275.5,43.5C 277.622,43.6225 279.789,43.6225 282,43.5C 283.167,45 284.333,46.5 285.5,48C 284.359,48.7412 284.359,49.5745 285.5,50.5C 284.975,51.1924 284.308,51.6924 283.5,52C 283.626,54.1195 283.959,56.2862 284.5,58.5C 285.791,56.9029 287.291,55.5696 289,54.5C 290.261,54.7591 291.261,55.4258 292,56.5C 293.561,62.6538 293.728,68.8204 292.5,75C 292.899,76.7275 293.566,78.2275 294.5,79.5 Z"/></g>
<g><path style="opacity:0.361" fill="#dedad6" d="M 487.5,51.5 C 487.34,53.153 486.674,54.4863 485.5,55.5C 485.229,53.6203 485.896,52.287 487.5,51.5 Z"/></g>
<g><path style="opacity:1" fill="#8e867a" d="M 511.5,46.5 C 513.584,49.0534 514.917,52.0534 515.5,55.5C 512.847,53.2506 511.514,50.2506 511.5,46.5 Z"/></g>
<g><path style="opacity:0.662" fill="#5f544c" d="M 216.5,42.5 C 216.833,42.5 217.167,42.5 217.5,42.5C 216.359,43.339 215.026,44.0057 213.5,44.5C 212.564,65.9828 212.231,87.3161 212.5,108.5C 211.503,86.673 211.169,64.673 211.5,42.5C 213.167,42.5 214.833,42.5 216.5,42.5 Z"/></g>
<g><path style="opacity:0.145" fill="#e6e2db" d="M 485.5,55.5 C 485.598,57.5529 484.931,59.2196 483.5,60.5C 483.402,58.4471 484.069,56.7804 485.5,55.5 Z"/></g>
<g><path style="opacity:1" fill="#554a42" d="M 106.5,54.5 C 110.679,62.8678 114.345,71.5345 117.5,80.5C 116.239,78.7096 114.739,77.0429 113,75.5C 112.383,74.5509 112.549,73.7175 113.5,73C 108.352,67.933 106.019,61.7663 106.5,54.5 Z"/></g>
<g><path style="opacity:0.027" fill="#bfbbab" d="M 515.5,55.5 C 516.912,57.6036 517.912,59.9369 518.5,62.5C 516.182,60.8148 515.182,58.4815 515.5,55.5 Z"/></g>
<g><path style="opacity:0.961" fill="#908983" d="M 76.5,56.5 C 76.8337,59.491 75.8337,61.8243 73.5,63.5C 73.7073,60.7594 74.7073,58.4261 76.5,56.5 Z"/></g>
<g><path style="opacity:0.161" fill="#b8b3aa" d="M 294.5,54.5 C 295.913,57.2186 296.58,60.2186 296.5,63.5C 295.087,60.7814 294.42,57.7814 294.5,54.5 Z"/></g>
<g><path style="opacity:1" fill="#2c1a0c" d="M 506.5,34.5 C 506.935,37.1573 507.935,39.4907 509.5,41.5C 510.537,42.9303 511.204,44.597 511.5,46.5C 511.514,50.2506 512.847,53.2506 515.5,55.5C 515.182,58.4815 516.182,60.8148 518.5,62.5C 520.07,65.3135 521.403,68.3135 522.5,71.5C 522.12,73.698 522.787,75.3646 524.5,76.5C 525.537,77.9303 526.204,79.597 526.5,81.5C 526.66,83.153 527.326,84.4863 528.5,85.5C 530.02,87.8902 531.02,90.5568 531.5,93.5C 531.66,95.153 532.326,96.4863 533.5,97.5C 534.736,99.649 535.736,101.982 536.5,104.5C 536.229,106.38 536.896,107.713 538.5,108.5C 540.009,111.678 541.342,115.011 542.5,118.5C 542.67,119.822 542.337,120.989 541.5,122C 544.058,123.38 544.058,124.88 541.5,126.5C 542.391,127.59 543.391,127.59 544.5,126.5C 543.636,130.687 544.803,134.353 548,137.5C 548.77,136.402 549.603,136.402 550.5,137.5C 550.337,139.857 550.503,142.19 551,144.5C 551.333,143.833 551.667,143.167 552,142.5C 553.398,144.814 553.565,147.147 552.5,149.5C 552.808,150.308 553.308,150.975 554,151.5C 554.77,150.402 555.603,150.402 556.5,151.5C 556.461,152.583 556.127,153.583 555.5,154.5C 555.846,155.696 556.346,155.696 557,154.5C 557.424,157.025 558.59,159.025 560.5,160.5C 561.11,161.391 561.443,162.391 561.5,163.5C 562.167,165.5 562.833,167.5 563.5,169.5C 563.586,170.496 563.252,171.329 562.5,172C 564.202,173.592 565.868,175.092 567.5,176.5C 567.229,178.38 567.896,179.713 569.5,180.5C 569.5,180.833 569.5,181.167 569.5,181.5C 569.166,184.491 570.166,186.824 572.5,188.5C 572.66,190.153 573.326,191.486 574.5,192.5C 574.261,194.467 574.594,196.301 575.5,198C 566.173,198.5 556.839,198.666 547.5,198.5C 547.749,194.542 547.082,190.876 545.5,187.5C 545.279,184.933 544.612,182.599 543.5,180.5C 543.443,179.391 543.11,178.391 542.5,177.5C 542.253,174.146 541.253,171.146 539.5,168.5C 538.262,166.786 537.595,164.786 537.5,162.5C 538.524,158.277 537.857,154.277 535.5,150.5C 535.709,149.914 536.043,149.414 536.5,149C 534.007,147.731 531.34,146.898 528.5,146.5C 528.5,145.5 528.5,144.5 528.5,143.5C 526.801,143.66 525.134,143.494 523.5,143C 524.458,141.853 524.125,140.853 522.5,140C 523.641,139.259 523.641,138.425 522.5,137.5C 523.381,136.029 524.714,135.196 526.5,135C 525.263,134.768 524.263,134.268 523.5,133.5C 524.239,133.631 524.906,133.464 525.5,133C 521.958,126.855 519.291,120.355 517.5,113.5C 517.008,111.181 516.008,109.181 514.5,107.5C 511.32,101.8 508.653,95.7998 506.5,89.5C 506.02,86.5568 505.02,83.8902 503.5,81.5C 502.596,80.791 502.263,79.791 502.5,78.5C 501.87,76.2504 500.87,74.2504 499.5,72.5C 497.928,68.9736 496.428,65.307 495,61.5C 494.155,63.6115 493.322,65.6115 492.5,67.5C 491.326,68.5137 490.66,69.847 490.5,71.5C 490.204,73.403 489.537,75.0697 488.5,76.5C 487.194,76.879 485.861,77.2124 484.5,77.5C 483.162,79.8134 483.162,82.4801 484.5,85.5C 482.063,87.9173 480.73,90.9173 480.5,94.5C 479.883,94.3893 479.383,94.056 479,93.5C 478.583,94.756 477.75,95.4226 476.5,95.5C 476.058,92.9564 475.725,90.4564 475.5,88C 475.439,86.2894 476.106,84.956 477.5,84C 476.483,82.9505 476.316,81.7839 477,80.5C 477.654,81.6956 478.154,81.6956 478.5,80.5C 478.058,79.2613 477.391,78.2613 476.5,77.5C 477.835,74.8313 479.501,72.3313 481.5,70C 481.146,68.3745 481.146,66.5412 481.5,64.5C 481.66,62.847 482.326,61.5137 483.5,60.5C 484.931,59.2196 485.598,57.5529 485.5,55.5C 486.674,54.4863 487.34,53.153 487.5,51.5C 487.328,50.5084 487.662,49.8417 488.5,49.5C 490.213,48.3646 490.88,46.698 490.5,44.5C 491.674,43.4863 492.34,42.153 492.5,40.5C 494.397,38.3025 495.397,35.6358 495.5,32.5C 498.445,31.5325 501.445,31.3658 504.5,32C 505.756,32.4169 506.423,33.2502 506.5,34.5 Z"/></g>
<g><path style="opacity:0.149" fill="#e5ded3" d="M 366.5,43.5 C 368.496,94.8226 369.162,146.489 368.5,198.5C 368.5,198.833 368.5,199.167 368.5,199.5C 367.177,196.062 366.51,192.229 366.5,188C 367.781,139.768 367.781,91.6011 366.5,43.5 Z"/></g>
<g><path style="opacity:1" fill="#261a06" d="M 389.5,42.5 C 389.5,43.1667 389.5,43.8333 389.5,44.5C 389.5,95.1667 389.5,145.833 389.5,196.5C 388.448,198.256 386.781,198.923 384.5,198.5C 385.66,197.735 386.66,196.735 387.5,195.5C 385.678,150.649 384.845,105.649 385,60.5C 384.219,59.2713 383.719,57.938 383.5,56.5C 385.18,53.4291 385.847,50.0958 385.5,46.5C 386.774,45.8106 386.774,44.9772 385.5,44C 387.061,43.6824 388.228,42.8491 389,41.5C 389.399,41.7284 389.565,42.0618 389.5,42.5 Z"/></g>
<g><path style="opacity:0.004" fill="#e2dacb" d="M 492.5,67.5 C 492.771,69.3797 492.104,70.713 490.5,71.5C 490.66,69.847 491.326,68.5137 492.5,67.5 Z"/></g>
<g><path style="opacity:0.063" fill="#d7d1c8" d="M 89.5,69.5 C 90.4013,70.2905 91.0679,71.2905 91.5,72.5C 89.9519,72.1788 89.2852,71.1788 89.5,69.5 Z"/></g>
<g><path style="opacity:1" fill="#8a8379" d="M 481.5,64.5 C 481.146,66.5412 481.146,68.3745 481.5,70C 479.501,72.3313 477.835,74.8313 476.5,77.5C 476.068,78.7095 475.401,79.7095 474.5,80.5C 476.452,74.9705 478.785,69.6371 481.5,64.5 Z"/></g>
<g><path style="opacity:0.149" fill="#e3dfd5" d="M 71.5,68.5 C 71.0075,70.8185 70.0075,72.8185 68.5,74.5C 68.461,71.911 69.461,69.911 71.5,68.5 Z"/></g>
<g><path style="opacity:1" fill="#8a8179" d="M 83.5,68.5 C 83.539,71.089 82.539,73.089 80.5,74.5C 79.6971,73.5768 79.5304,72.5768 80,71.5C 80.3333,71.8333 80.6667,72.1667 81,72.5C 81.6082,70.9336 82.4415,69.6002 83.5,68.5 Z"/></g>
<g><path style="opacity:0.922" fill="#a9a098" d="M 522.5,71.5 C 523.931,72.7804 524.598,74.4471 524.5,76.5C 522.787,75.3646 522.12,73.698 522.5,71.5 Z"/></g>
<g><path style="opacity:0.02" fill="#ccc9c4" d="M 499.5,72.5 C 500.87,74.2504 501.87,76.2504 502.5,78.5C 500.386,77.216 499.386,75.216 499.5,72.5 Z"/></g>
<g><path style="opacity:0.969" fill="#6c6156" d="M 488.5,76.5 C 487.958,79.9122 486.625,82.9122 484.5,85.5C 483.162,82.4801 483.162,79.8134 484.5,77.5C 485.861,77.2124 487.194,76.879 488.5,76.5 Z"/></g>
<g><path style="opacity:0.494" fill="#d7d3cf" d="M 66.5,79.5 C 66.3404,81.153 65.6737,82.4863 64.5,83.5C 64.2291,81.6203 64.8958,80.287 66.5,79.5 Z"/></g>
<g><path style="opacity:0.992" fill="#312217" d="M 249.5,33.5 C 249.5,33.1667 249.5,32.8333 249.5,32.5C 253.269,32.244 256.936,32.5773 260.5,33.5C 263.123,35.2655 266.123,35.9321 269.5,35.5C 274.452,35.8404 278.785,37.5071 282.5,40.5C 283.539,42.5311 285.205,43.8645 287.5,44.5C 288.08,46.7488 289.413,48.4154 291.5,49.5C 292.687,51.0725 293.687,52.7392 294.5,54.5C 294.42,57.7814 295.087,60.7814 296.5,63.5C 296.821,69.0262 296.488,74.3595 295.5,79.5C 295.167,79.5 294.833,79.5 294.5,79.5C 293.566,78.2275 292.899,76.7275 292.5,75C 293.728,68.8204 293.561,62.6538 292,56.5C 291.261,55.4258 290.261,54.7591 289,54.5C 287.291,55.5696 285.791,56.9029 284.5,58.5C 283.959,56.2862 283.626,54.1195 283.5,52C 284.308,51.6924 284.975,51.1924 285.5,50.5C 284.359,49.5745 284.359,48.7412 285.5,48C 284.333,46.5 283.167,45 282,43.5C 279.789,43.6225 277.622,43.6225 275.5,43.5C 271.045,45.0176 270.711,46.851 274.5,49C 273.262,48.9227 272.262,49.0894 271.5,49.5C 274.212,51.7135 276.379,54.3802 278,57.5C 280.161,66.8976 279.994,76.2309 277.5,85.5C 277.709,86.086 278.043,86.586 278.5,87C 276.751,88.2915 274.918,89.4582 273,90.5C 270.637,93.5988 271.137,96.0988 274.5,98C 273.833,98.3333 273.167,98.6667 272.5,99C 274.125,99.8525 274.458,100.853 273.5,102C 277.01,101.993 278.01,100.326 276.5,97C 278.804,96.1048 281.138,95.2715 283.5,94.5C 282.833,93.5 282.167,92.5 281.5,91.5C 282.225,89.9246 283.225,88.2579 284.5,86.5C 283.957,85.1362 283.79,83.8029 284,82.5C 284.333,82.8333 284.667,83.1667 285,83.5C 285.745,82.0096 286.912,81.0096 288.5,80.5C 290.357,81.2665 292.024,82.2665 293.5,83.5C 293.5,83.8333 293.5,84.1667 293.5,84.5C 291.062,91.275 287.062,97.1083 281.5,102C 273.434,108.033 264.434,111.866 254.5,113.5C 252.242,113.775 251.908,114.775 253.5,116.5C 252.975,117.192 252.308,117.692 251.5,118C 253.247,118.352 254.914,118.852 256.5,119.5C 259.313,122.446 261.646,125.779 263.5,129.5C 263.427,131.027 264.094,132.027 265.5,132.5C 266.737,133.965 267.737,135.632 268.5,137.5C 268.427,139.027 269.094,140.027 270.5,140.5C 271.82,142.463 273.154,144.463 274.5,146.5C 274.427,148.027 275.094,149.027 276.5,149.5C 279.65,153.119 282.316,157.119 284.5,161.5C 284.427,163.027 285.094,164.027 286.5,164.5C 287.83,166.492 289.164,168.492 290.5,170.5C 291.004,174.92 293.337,177.92 297.5,179.5C 299.167,180.5 300.5,181.833 301.5,183.5C 301.427,185.027 302.094,186.027 303.5,186.5C 304.5,188.167 305.833,189.5 307.5,190.5C 308.167,190.833 308.833,191.167 309.5,191.5C 309.5,191.833 309.5,192.167 309.5,192.5C 306.18,191.842 303.513,190.175 301.5,187.5C 300.914,187.709 300.414,188.043 300,188.5C 297.253,186.507 295.086,184.007 293.5,181C 293.833,180.667 294.167,180.333 294.5,180C 292.27,178.115 289.77,176.615 287,175.5C 285.156,173.829 284.49,171.829 285,169.5C 285.333,170.167 285.667,170.833 286,171.5C 286.781,170.056 286.614,168.723 285.5,167.5C 284.201,166.91 283.368,165.91 283,164.5C 282.692,165.308 282.192,165.975 281.5,166.5C 280.231,164.305 280.231,162.139 281.5,160C 279.5,159 277.5,158 275.5,157C 276.167,156.333 276.833,155.667 277.5,155C 275.847,153.195 274.18,151.362 272.5,149.5C 270.368,150.233 268.535,150.233 267,149.5C 264.894,143.663 262.727,137.997 260.5,132.5C 259.252,133.04 258.085,133.707 257,134.5C 255.913,132.068 255.413,132.402 255.5,135.5C 256.873,135.343 258.207,135.51 259.5,136C 259,136.5 258.5,137 258,137.5C 256.989,136.663 255.822,136.33 254.5,136.5C 254.724,138.787 255.391,140.953 256.5,143C 255.372,147.487 255.372,151.987 256.5,156.5C 256.167,156.5 255.833,156.5 255.5,156.5C 254.599,155.71 253.932,154.71 253.5,153.5C 253.573,151.973 252.906,150.973 251.5,150.5C 247.438,145.102 243.772,139.435 240.5,133.5C 242.042,134.301 243.708,134.634 245.5,134.5C 245.5,135.5 245.5,136.5 245.5,137.5C 248.339,136.679 250.672,135.013 252.5,132.5C 251.313,130.79 251.646,129.29 253.5,128C 253.2,125.976 252.367,125.476 251,126.5C 250.713,124.109 250.213,121.776 249.5,119.5C 250.347,117.939 250.014,116.439 248.5,115C 251.167,114.333 251.167,113.667 248.5,113C 250.439,112.092 251.439,110.592 251.5,108.5C 246.625,107.372 241.958,107.372 237.5,108.5C 244.741,107.198 251.741,104.864 258.5,101.5C 260.749,100.92 262.415,99.5869 263.5,97.5C 264.167,96.1667 265.167,95.1667 266.5,94.5C 267.906,94.0269 268.573,93.0269 268.5,91.5C 269.737,90.0351 270.737,88.3684 271.5,86.5C 273.241,84.6051 274.241,82.2718 274.5,79.5C 275.6,70.6054 274.1,62.2721 270,54.5C 266.285,49.4515 261.452,45.9515 255.5,44C 242.895,40.6365 230.229,40.1365 217.5,42.5C 217.167,42.5 216.833,42.5 216.5,42.5C 217.058,41.2101 218.058,40.3768 219.5,40C 226.357,39.7395 233.191,39.2395 240,38.5C 243.085,38.9566 246.085,39.6233 249,40.5C 250.117,40.3349 251.284,40.0016 252.5,39.5C 253.941,40.304 255.441,40.9706 257,41.5C 258.762,41.0556 258.595,40.5556 256.5,40C 257.253,38.513 258.086,38.3463 259,39.5C 259.667,38.5 259.667,37.5 259,36.5C 255.901,35.2598 252.734,34.2598 249.5,33.5 Z"/></g>
<g><path style="opacity:0.029" fill="#ddd6d5" d="M 294.5,79.5 C 294.833,79.5 295.167,79.5 295.5,79.5C 295.88,81.698 295.213,83.3646 293.5,84.5C 293.5,84.1667 293.5,83.8333 293.5,83.5C 294.234,82.2921 294.567,80.9587 294.5,79.5 Z"/></g>
<g><path style="opacity:0.029" fill="#e4e1dc" d="M 93.5,78.5 C 95.0652,80.5093 96.0652,82.8427 96.5,85.5C 94.5516,83.6796 93.5516,81.3462 93.5,78.5 Z"/></g>
<g><path style="opacity:0.008" fill="#e8e5df" d="M 526.5,81.5 C 528.104,82.287 528.771,83.6203 528.5,85.5C 527.326,84.4863 526.66,83.153 526.5,81.5 Z"/></g>
<g><path style="opacity:0.02" fill="#dfdccd" d="M 79.5,77.5 C 79.3076,81.1024 77.9743,84.1024 75.5,86.5C 76.4629,83.2558 77.7962,80.2558 79.5,77.5 Z"/></g>
<g><path style="opacity:0.984" fill="#807772" d="M 117.5,80.5 C 119.065,82.5093 120.065,84.8427 120.5,87.5C 117.908,85.9639 116.908,83.6305 117.5,80.5 Z"/></g>
<g><path style="opacity:0.808" fill="#a79690" d="M 274.5,79.5 C 274.241,82.2718 273.241,84.6051 271.5,86.5C 271.552,83.6538 272.552,81.3204 274.5,79.5 Z"/></g>
<g><path style="opacity:0.094" fill="#e4e1db" d="M 503.5,81.5 C 505.02,83.8902 506.02,86.5568 506.5,89.5C 504.415,87.3155 503.415,84.6489 503.5,81.5 Z"/></g>
<g><path style="opacity:0.984" fill="#8e8783" d="M 64.5,83.5 C 64.8799,85.698 64.2132,87.3646 62.5,88.5C 62.4021,86.4471 63.0687,84.7804 64.5,83.5 Z"/></g>
<g><path style="opacity:0.996" fill="#736a60" d="M 97.5,87.5 C 98.5,87.5 99.5,87.5 100.5,87.5C 99.6581,92.0604 100.991,95.727 104.5,98.5C 103.873,99.4168 103.539,100.417 103.5,101.5C 100.551,97.3434 98.5507,92.6767 97.5,87.5 Z"/></g>
<g><path style="opacity:0.984" fill="#93887f" d="M 484.5,85.5 C 484.308,89.1024 482.974,92.1024 480.5,94.5C 480.73,90.9173 482.063,87.9173 484.5,85.5 Z"/></g>
<g><path style="opacity:0.937" fill="#8c8378" d="M 73.5,91.5 C 73.5979,93.5529 72.9313,95.2196 71.5,96.5C 71.0773,94.2188 71.744,92.5521 73.5,91.5 Z"/></g>
<g><path style="opacity:0.118" fill="#bab4ab" d="M 268.5,91.5 C 268.573,93.0269 267.906,94.0269 266.5,94.5C 266.427,92.9731 267.094,91.9731 268.5,91.5 Z"/></g>
<g><path style="opacity:0.014" fill="#e0ddd5" d="M 531.5,93.5 C 533.104,94.287 533.771,95.6203 533.5,97.5C 532.326,96.4863 531.66,95.153 531.5,93.5 Z"/></g>
<g><path style="opacity:0.992" fill="#5f5349" d="M 480.5,94.5 C 479.903,99.0169 478.237,103.017 475.5,106.5C 475.141,104.234 475.808,102.401 477.5,101C 476.594,99.3005 476.261,97.4672 476.5,95.5C 477.75,95.4226 478.583,94.756 479,93.5C 479.383,94.056 479.883,94.3893 480.5,94.5 Z"/></g>
<g><path style="opacity:1" fill="#62584f" d="M 120.5,87.5 C 123.057,91.8092 125.057,96.4759 126.5,101.5C 123.145,99.5879 121.645,96.5879 122,92.5C 121.25,91.8742 120.416,91.3742 119.5,91C 120.337,89.9887 120.67,88.8221 120.5,87.5 Z"/></g>
<g><path style="opacity:0.988" fill="#35291f" d="M 476.5,77.5 C 477.391,78.2613 478.058,79.2613 478.5,80.5C 478.154,81.6956 477.654,81.6956 477,80.5C 476.316,81.7839 476.483,82.9505 477.5,84C 476.106,84.956 475.439,86.2894 475.5,88C 475.725,90.4564 476.058,92.9564 476.5,95.5C 475.603,94.4019 474.77,94.4019 474,95.5C 474.795,92.1446 473.628,91.6446 470.5,94C 471.167,94.6667 471.833,95.3333 472.5,96C 468.39,100.683 465.89,105.85 465,111.5C 461.43,114.276 459.597,117.942 459.5,122.5C 458.041,122.433 456.708,122.766 455.5,123.5C 455.5,123.167 455.5,122.833 455.5,122.5C 456.594,119.318 457.928,116.318 459.5,113.5C 460.906,113.027 461.573,112.027 461.5,110.5C 461.402,108.447 462.069,106.78 463.5,105.5C 465.213,104.365 465.88,102.698 465.5,100.5C 467.972,93.5583 470.972,86.8916 474.5,80.5C 475.401,79.7095 476.068,78.7095 476.5,77.5 Z"/></g>
<g><path style="opacity:0.592" fill="#867b76" d="M 263.5,97.5 C 262.415,99.5869 260.749,100.92 258.5,101.5C 259.585,99.4131 261.251,98.0798 263.5,97.5 Z"/></g>
<g><path style="opacity:1" fill="#999086" d="M 465.5,100.5 C 465.88,102.698 465.213,104.365 463.5,105.5C 463.402,103.447 464.069,101.78 465.5,100.5 Z"/></g>
<g><path style="opacity:0.047" fill="#e7e1d8" d="M 104.5,104.5 C 105.674,105.514 106.34,106.847 106.5,108.5C 104.896,107.713 104.229,106.38 104.5,104.5 Z"/></g>
<g><path style="opacity:0.035" fill="#cfcabd" d="M 68.5,103.5 C 68.539,106.089 67.539,108.089 65.5,109.5C 65.9925,107.181 66.9925,105.181 68.5,103.5 Z"/></g>
<g><path style="opacity:0.984" fill="#665c53" d="M 126.5,101.5 C 129.368,106.572 131.701,111.905 133.5,117.5C 131.295,114.264 128.962,111.097 126.5,108C 126.986,105.973 126.986,103.807 126.5,101.5 Z"/></g>
<g><path style="opacity:0.039" fill="#ecdfdd" d="M 536.5,104.5 C 537.674,105.514 538.34,106.847 538.5,108.5C 536.896,107.713 536.229,106.38 536.5,104.5 Z"/></g>
<g><path style="opacity:1" fill="#61544b" d="M 475.5,106.5 C 474.871,109.397 473.871,112.064 472.5,114.5C 472.167,114.5 471.833,114.5 471.5,114.5C 471.328,112.508 471.995,110.842 473.5,109.5C 472.361,107.604 473.027,106.604 475.5,106.5 Z"/></g>
<g><path style="opacity:0.02" fill="#c8c1be" d="M 514.5,107.5 C 516.008,109.181 517.008,111.181 517.5,113.5C 515.461,112.089 514.461,110.089 514.5,107.5 Z"/></g>
<g><path style="opacity:0.078" fill="#d2d1c8" d="M 461.5,110.5 C 461.573,112.027 460.906,113.027 459.5,113.5C 459.427,111.973 460.094,110.973 461.5,110.5 Z"/></g>
<g><path style="opacity:0.071" fill="#d3cfc8" d="M 51.5,113.5 C 51.573,115.027 50.9063,116.027 49.5,116.5C 49.427,114.973 50.0937,113.973 51.5,113.5 Z"/></g>
<g><path style="opacity:0.006" fill="#e0ded9" d="M 471.5,114.5 C 471.833,114.5 472.167,114.5 472.5,114.5C 472.715,116.179 472.048,117.179 470.5,117.5C 471.11,116.609 471.443,115.609 471.5,114.5 Z"/></g>
<g><path style="opacity:0.961" fill="#5e544b" d="M 254.5,113.5 C 254.704,115.685 255.37,117.685 256.5,119.5C 254.914,118.852 253.247,118.352 251.5,118C 252.308,117.692 252.975,117.192 253.5,116.5C 251.908,114.775 252.242,113.775 254.5,113.5 Z"/></g>
<g><path style="opacity:0.1" fill="#eceae5" d="M 49.5,116.5 C 49.5979,118.553 48.9313,120.22 47.5,121.5C 47.4021,119.447 48.0687,117.78 49.5,116.5 Z"/></g>
<g><path style="opacity:0.004" fill="#e2dfd7" d="M 62.5,117.5 C 62.7709,119.38 62.1042,120.713 60.5,121.5C 60.6596,119.847 61.3263,118.514 62.5,117.5 Z"/></g>
<g><path style="opacity:0.997" fill="#7c736a" d="M 109.5,116.5 C 110.972,118.134 112.638,119.634 114.5,121C 113.663,122.011 113.33,123.178 113.5,124.5C 111.805,122.103 110.472,119.437 109.5,116.5 Z"/></g>
<g><path style="opacity:1" fill="#3f3429" d="M 212.5,117.5 C 219.07,116.107 225.737,116.274 232.5,118C 233.833,118.667 233.833,119.333 232.5,120C 237.536,121.21 239.536,124.376 238.5,129.5C 235.769,125.653 232.603,121.986 229,118.5C 223.55,117.57 218.05,117.237 212.5,117.5 Z"/></g>
<g><path style="opacity:0.118" fill="#ece6e0" d="M 455.5,122.5 C 455.5,122.833 455.5,123.167 455.5,123.5C 455.34,125.153 454.674,126.486 453.5,127.5C 453.402,125.447 454.069,123.78 455.5,122.5 Z"/></g>
<g><path style="opacity:0.969" fill="#6e645d" d="M 113.5,124.5 C 115.009,125.304 116.343,126.471 117.5,128C 116.663,129.011 116.33,130.178 116.5,131.5C 114.707,129.574 113.707,127.241 113.5,124.5 Z"/></g>
<g><path style="opacity:0.998" fill="#50423a" d="M 135.5,122.5 C 137.592,125.088 138.925,128.088 139.5,131.5C 138.542,131.047 137.708,130.381 137,129.5C 136.676,131.569 135.842,131.902 134.5,130.5C 133.359,128.579 133.192,126.579 134,124.5C 134.333,125.5 134.667,126.5 135,127.5C 135.654,128.696 136.154,128.696 136.5,127.5C 135.691,125.929 135.357,124.262 135.5,122.5 Z"/></g>
<g><path style="opacity:0.059" fill="#e0dfd1" d="M 46.5,124.5 C 46.0075,126.819 45.0075,128.819 43.5,130.5C 43.461,127.911 44.461,125.911 46.5,124.5 Z"/></g>
<g><path style="opacity:0.055" fill="#e3d7d7" d="M 263.5,129.5 C 264.906,129.973 265.573,130.973 265.5,132.5C 264.094,132.027 263.427,131.027 263.5,129.5 Z"/></g>
<g><path style="opacity:1" fill="#413429" d="M 542.5,118.5 C 545.538,124.594 548.204,130.927 550.5,137.5C 549.603,136.402 548.77,136.402 548,137.5C 544.803,134.353 543.636,130.687 544.5,126.5C 543.391,127.59 542.391,127.59 541.5,126.5C 544.058,124.88 544.058,123.38 541.5,122C 542.337,120.989 542.67,119.822 542.5,118.5 Z"/></g>
<g><path style="opacity:0.475" fill="#d7d6d0" d="M 41.5,135.5 C 41.3404,137.153 40.6737,138.486 39.5,139.5C 39.2291,137.62 39.8958,136.287 41.5,135.5 Z"/></g>
<g><path style="opacity:1" fill="#2b190b" d="M 106.5,54.5 C 106.019,61.7663 108.352,67.933 113.5,73C 112.549,73.7175 112.383,74.5509 113,75.5C 114.739,77.0429 116.239,78.7096 117.5,80.5C 116.908,83.6305 117.908,85.9639 120.5,87.5C 120.67,88.8221 120.337,89.9887 119.5,91C 120.416,91.3742 121.25,91.8742 122,92.5C 121.645,96.5879 123.145,99.5879 126.5,101.5C 126.986,103.807 126.986,105.973 126.5,108C 128.962,111.097 131.295,114.264 133.5,117.5C 134.537,118.93 135.204,120.597 135.5,122.5C 135.357,124.262 135.691,125.929 136.5,127.5C 136.154,128.696 135.654,128.696 135,127.5C 134.667,126.5 134.333,125.5 134,124.5C 133.192,126.579 133.359,128.579 134.5,130.5C 135.842,131.902 136.676,131.569 137,129.5C 137.708,130.381 138.542,131.047 139.5,131.5C 139.793,135.437 139.46,139.27 138.5,143C 140.041,144.579 141.208,146.413 142,148.5C 142.667,147.167 143.333,147.167 144,148.5C 144.471,150.246 145.138,151.913 146,153.5C 146.333,152.833 146.667,152.167 147,151.5C 147.333,153.167 147.667,154.833 148,156.5C 148.671,157.252 149.504,157.586 150.5,157.5C 150.5,157.833 150.5,158.167 150.5,158.5C 150.344,161.066 150.678,163.566 151.5,166C 152.356,167.595 153.689,168.428 155.5,168.5C 155.5,168.833 155.5,169.167 155.5,169.5C 155.68,173.918 157.346,177.585 160.5,180.5C 161.338,180.842 161.672,181.508 161.5,182.5C 161.402,184.553 162.069,186.22 163.5,187.5C 163.12,189.698 163.787,191.365 165.5,192.5C 166.338,192.842 166.672,193.508 166.5,194.5C 166.5,195.833 166.5,197.167 166.5,198.5C 163.167,198.5 159.833,198.5 156.5,198.5C 150.439,198.844 144.772,198.844 139.5,198.5C 138.808,197.975 138.308,197.308 138,196.5C 137.503,193.854 137.336,191.187 137.5,188.5C 136.87,184.952 135.87,181.619 134.5,178.5C 134.664,175.813 134.497,173.146 134,170.5C 133.346,171.696 132.846,171.696 132.5,170.5C 132.914,166.643 133.081,162.643 133,158.5C 131.916,157.335 131.083,156.002 130.5,154.5C 128.994,153.253 127.494,153.253 126,154.5C 126.019,152.893 126.185,151.226 126.5,149.5C 125.5,149.5 124.5,149.5 123.5,149.5C 122.588,147.405 121.421,145.405 120,143.5C 117.959,144.423 115.792,144.756 113.5,144.5C 112.167,144.5 110.833,144.5 109.5,144.5C 90.3377,143.668 71.0043,143.168 51.5,143C 49.1054,141.987 47.4387,140.32 46.5,138C 46.6801,135.759 47.5135,135.259 49,136.5C 48.0209,134.721 48.3542,133.055 50,131.5C 50.5691,135.361 51.4024,135.361 52.5,131.5C 52.109,132.718 52.7756,133.552 54.5,134C 74.3376,134.829 94.0043,134.662 113.5,133.5C 114.873,133.657 116.207,133.49 117.5,133C 116.944,132.617 116.611,132.117 116.5,131.5C 116.33,130.178 116.663,129.011 117.5,128C 116.343,126.471 115.009,125.304 113.5,124.5C 113.33,123.178 113.663,122.011 114.5,121C 112.638,119.634 110.972,118.134 109.5,116.5C 108.195,113.947 107.195,111.28 106.5,108.5C 106.34,106.847 105.674,105.514 104.5,104.5C 103.596,103.791 103.263,102.791 103.5,101.5C 103.539,100.417 103.873,99.4168 104.5,98.5C 100.991,95.727 99.6581,92.0604 100.5,87.5C 99.5,87.5 98.5,87.5 97.5,87.5C 96.6618,87.1583 96.3284,86.4916 96.5,85.5C 96.0652,82.8427 95.0652,80.5093 93.5,78.5C 93.4802,76.857 94.1468,75.5237 95.5,74.5C 94.7376,74.0894 93.7376,73.9227 92.5,74C 93.4063,70.0932 95.7396,67.4265 99.5,66C 101.313,66.0464 102.979,65.8797 104.5,65.5C 104.833,64.8333 105.167,64.1667 105.5,63.5C 103.537,60.6389 102.87,57.6389 103.5,54.5C 104.233,53.913 105.233,53.913 106.5,54.5 Z"/></g>
<g><path style="opacity:1" fill="#322617" d="M 464.5,133.5 C 484.167,133.5 503.833,133.5 523.5,133.5C 524.263,134.268 525.263,134.768 526.5,135C 524.714,135.196 523.381,136.029 522.5,137.5C 523.641,138.425 523.641,139.259 522.5,140C 524.125,140.853 524.458,141.853 523.5,143C 525.134,143.494 526.801,143.66 528.5,143.5C 528.5,144.5 528.5,145.5 528.5,146.5C 526.436,146.313 524.436,145.813 522.5,145C 502.457,144.81 482.457,144.31 462.5,143.5C 461.833,143.5 461.167,143.5 460.5,143.5C 463.041,141.168 466.041,139.335 469.5,138C 467,137.329 465.333,135.829 464.5,133.5 Z"/></g>
<g><path style="opacity:0.067" fill="#b8b0ad" d="M 268.5,137.5 C 269.906,137.973 270.573,138.973 270.5,140.5C 269.094,140.027 268.427,139.027 268.5,137.5 Z"/></g>
<g><path style="opacity:0.157" fill="#d4cfc8" d="M 39.5,139.5 C 39.5979,141.553 38.9313,143.22 37.5,144.5C 37.4021,142.447 38.0687,140.78 39.5,139.5 Z"/></g>
<g><path style="opacity:1" fill="#3b2f26" d="M 139.5,131.5 C 143.679,139.868 147.345,148.534 150.5,157.5C 149.504,157.586 148.671,157.252 148,156.5C 147.667,154.833 147.333,153.167 147,151.5C 146.667,152.167 146.333,152.833 146,153.5C 145.138,151.913 144.471,150.246 144,148.5C 143.333,147.167 142.667,147.167 142,148.5C 141.208,146.413 140.041,144.579 138.5,143C 139.46,139.27 139.793,135.437 139.5,131.5 Z"/></g>
<g><path style="opacity:1" fill="#605346" d="M 123.5,149.5 C 120.501,147.063 117.168,145.396 113.5,144.5C 115.792,144.756 117.959,144.423 120,143.5C 121.421,145.405 122.588,147.405 123.5,149.5 Z"/></g>
<g><path style="opacity:0.596" fill="#7c6d64" d="M 460.5,143.5 C 461.167,143.5 461.833,143.5 462.5,143.5C 461.737,144.268 460.737,144.768 459.5,145C 458.915,146.302 458.249,147.469 457.5,148.5C 455.516,145.139 456.516,143.472 460.5,143.5 Z"/></g>
<g><path style="opacity:0.459" fill="#dcdad6" d="M 36.5,146.5 C 36.3404,148.153 35.6737,149.486 34.5,150.5C 34.2291,148.62 34.8958,147.287 36.5,146.5 Z"/></g>
<g><path style="opacity:1" fill="#6c645b" d="M 447.5,141.5 C 448.098,143.357 448.098,145.023 447.5,146.5C 446.533,147.984 445.2,148.984 443.5,149.5C 444.326,146.515 445.659,143.849 447.5,141.5 Z"/></g>
<g><path style="opacity:0.122" fill="#bab5b0" d="M 274.5,146.5 C 275.906,146.973 276.573,147.973 276.5,149.5C 275.094,149.027 274.427,148.027 274.5,146.5 Z"/></g>
<g><path style="opacity:0.984" fill="#51473e" d="M 550.5,137.5 C 553.065,141.844 555.065,146.51 556.5,151.5C 555.603,150.402 554.77,150.402 554,151.5C 553.308,150.975 552.808,150.308 552.5,149.5C 553.565,147.147 553.398,144.814 552,142.5C 551.667,143.167 551.333,143.833 551,144.5C 550.503,142.19 550.337,139.857 550.5,137.5 Z"/></g>
<g><path style="opacity:0.004" fill="#dcd6d3" d="M 251.5,150.5 C 252.906,150.973 253.573,151.973 253.5,153.5C 252.094,153.027 251.427,152.027 251.5,150.5 Z"/></g>
<g><path style="opacity:0.055" fill="#d0c6c2" d="M 48.5,149.5 C 48.5979,151.553 47.9313,153.22 46.5,154.5C 46.4021,152.447 47.0687,150.78 48.5,149.5 Z"/></g>
<g><path style="opacity:1" fill="#9a968d" d="M 34.5,150.5 C 34.8799,152.698 34.2132,154.365 32.5,155.5C 32.4021,153.447 33.0687,151.78 34.5,150.5 Z"/></g>
<g><path style="opacity:1" fill="#867e74" d="M 556.5,151.5 C 558.592,154.088 559.925,157.088 560.5,160.5C 558.59,159.025 557.424,157.025 557,154.5C 556.346,155.696 555.846,155.696 555.5,154.5C 556.127,153.583 556.461,152.583 556.5,151.5 Z"/></g>
<g><path style="opacity:0.984" fill="#786e63" d="M 457.5,148.5 C 456.216,152.693 454.549,156.693 452.5,160.5C 452.676,156.635 453.676,152.968 455.5,149.5C 456.183,149.137 456.85,148.804 457.5,148.5 Z"/></g>
<g><path style="opacity:0.999" fill="#413327" d="M 123.5,149.5 C 124.5,149.5 125.5,149.5 126.5,149.5C 126.185,151.226 126.019,152.893 126,154.5C 127.494,153.253 128.994,153.253 130.5,154.5C 131.083,156.002 131.916,157.335 133,158.5C 133.081,162.643 132.914,166.643 132.5,170.5C 132.846,171.696 133.346,171.696 134,170.5C 134.497,173.146 134.664,175.813 134.5,178.5C 133.129,176.064 132.129,173.397 131.5,170.5C 131.405,168.214 130.738,166.214 129.5,164.5C 126.705,159.896 124.705,154.896 123.5,149.5 Z"/></g>
<g><path style="opacity:0.035" fill="#d1cdc8" d="M 255.5,156.5 C 255.833,156.5 256.167,156.5 256.5,156.5C 257.11,157.391 257.443,158.391 257.5,159.5C 256.094,159.027 255.427,158.027 255.5,156.5 Z"/></g>
<g><path style="opacity:0.984" fill="#45382f" d="M 528.5,146.5 C 531.34,146.898 534.007,147.731 536.5,149C 536.043,149.414 535.709,149.914 535.5,150.5C 537.857,154.277 538.524,158.277 537.5,162.5C 535.213,158.848 533.379,154.848 532,150.5C 530.624,149.295 529.458,147.962 528.5,146.5 Z"/></g>
<g><path style="opacity:0.075" fill="#cccac1" d="M 31.5,158.5 C 31.573,160.027 30.9063,161.027 29.5,161.5C 29.427,159.973 30.0937,158.973 31.5,158.5 Z"/></g>
<g><path style="opacity:0.016" fill="#ebe7dd" d="M 452.5,160.5 C 452.771,162.38 452.104,163.713 450.5,164.5C 450.66,162.847 451.326,161.514 452.5,160.5 Z"/></g>
<g><path style="opacity:0.106" fill="#cccac0" d="M 284.5,161.5 C 285.906,161.973 286.573,162.973 286.5,164.5C 285.094,164.027 284.427,163.027 284.5,161.5 Z"/></g>
<g><path style="opacity:0.937" fill="#a6a29e" d="M 29.5,161.5 C 29.8799,163.698 29.2132,165.365 27.5,166.5C 27.4021,164.447 28.0687,162.78 29.5,161.5 Z"/></g>
<g><path style="opacity:0.067" fill="#e7e5db" d="M 43.5,161.5 C 43.5979,163.553 42.9313,165.22 41.5,166.5C 41.4021,164.447 42.0687,162.78 43.5,161.5 Z"/></g>
<g><path style="opacity:0.01" fill="#ddd8d5" d="M 561.5,163.5 C 563.539,164.911 564.539,166.911 564.5,169.5C 564.167,169.5 563.833,169.5 563.5,169.5C 562.833,167.5 562.167,165.5 561.5,163.5 Z"/></g>
<g><path style="opacity:1" fill="#50443b" d="M 150.5,158.5 C 152.912,161.368 154.579,164.701 155.5,168.5C 153.689,168.428 152.356,167.595 151.5,166C 150.678,163.566 150.344,161.066 150.5,158.5 Z"/></g>
<g><path style="opacity:0.988" fill="#928b82" d="M 437.5,163.5 C 437.487,167.152 436.153,170.152 433.5,172.5C 434.042,169.088 435.375,166.088 437.5,163.5 Z"/></g>
<g><path style="opacity:0.02" fill="#e3dfd1" d="M 129.5,164.5 C 130.738,166.214 131.405,168.214 131.5,170.5C 129.926,168.898 129.259,166.898 129.5,164.5 Z"/></g>
<g><path style="opacity:1" fill="#645c54" d="M 563.5,169.5 C 563.833,169.5 564.167,169.5 564.5,169.5C 565.773,171.713 566.773,174.046 567.5,176.5C 565.868,175.092 564.202,173.592 562.5,172C 563.252,171.329 563.586,170.496 563.5,169.5 Z"/></g>
<g><path style="opacity:0.039" fill="#d1c6bf" d="M 448.5,169.5 C 448.539,172.089 447.539,174.089 445.5,175.5C 445.992,173.181 446.992,171.181 448.5,169.5 Z"/></g>
<g><path style="opacity:1" fill="#aca9a2" d="M 26.5,168.5 C 26.4484,171.346 25.4484,173.68 23.5,175.5C 23.7073,172.759 24.7073,170.426 26.5,168.5 Z"/></g>
<g><path style="opacity:0.082" fill="#d2cbc3" d="M 265.5,171.5 C 267.25,172.659 268.25,174.326 268.5,176.5C 266.75,175.341 265.75,173.674 265.5,171.5 Z"/></g>
<g><path style="opacity:0.059" fill="#ddd7d1" d="M 539.5,168.5 C 541.253,171.146 542.253,174.146 542.5,177.5C 540.747,174.854 539.747,171.854 539.5,168.5 Z"/></g>
<g><path style="opacity:0.992" fill="#7e756a" d="M 155.5,169.5 C 157.951,172.74 159.618,176.407 160.5,180.5C 157.346,177.585 155.68,173.918 155.5,169.5 Z"/></g>
<g><path style="opacity:0.997" fill="#35261b" d="M 56.5,102.5 C 55.4639,104.391 55.4639,106.224 56.5,108C 54.4746,109.194 54.1413,110.694 55.5,112.5C 53.7481,116.672 52.5815,121.005 52,125.5C 49.4382,126.898 49.1049,128.565 51,130.5C 52,130.167 53,129.833 54,129.5C 55.0271,125.129 55.6937,120.796 56,116.5C 57,118.5 58,120.5 59,122.5C 59.1764,119.118 59.6764,115.785 60.5,112.5C 62.2012,111.446 63.8679,110.446 65.5,109.5C 64.871,112.397 63.871,115.064 62.5,117.5C 61.3263,118.514 60.6596,119.847 60.5,121.5C 59.7921,125.632 58.1254,129.299 55.5,132.5C 74.8218,133.5 94.1552,133.833 113.5,133.5C 94.0043,134.662 74.3376,134.829 54.5,134C 52.7756,133.552 52.109,132.718 52.5,131.5C 51.4024,135.361 50.5691,135.361 50,131.5C 48.3542,133.055 48.0209,134.721 49,136.5C 47.5135,135.259 46.6801,135.759 46.5,138C 47.4387,140.32 49.1054,141.987 51.5,143C 71.0043,143.168 90.3377,143.668 109.5,144.5C 89.8305,144.333 70.1638,144.5 50.5,145C 49.9011,146.622 49.2344,148.122 48.5,149.5C 47.0687,150.78 46.4021,152.447 46.5,154.5C 45.3124,156.722 44.3124,159.055 43.5,161.5C 42.0687,162.78 41.4021,164.447 41.5,166.5C 40.1568,169.543 38.8234,172.543 37.5,175.5C 35.7329,177.792 34.7329,180.458 34.5,183.5C 34.5674,184.959 34.2341,186.292 33.5,187.5C 32.3126,190.946 31.6459,194.613 31.5,198.5C 25.8333,198.5 20.1667,198.5 14.5,198.5C 14.6287,196.784 14.962,195.117 15.5,193.5C 15.7959,191.597 16.4625,189.93 17.5,188.5C 19.0075,186.819 20.0075,184.819 20.5,182.5C 21.2638,179.982 22.2638,177.649 23.5,175.5C 25.4484,173.68 26.4484,171.346 26.5,168.5C 26.3284,167.508 26.6618,166.842 27.5,166.5C 29.2132,165.365 29.8799,163.698 29.5,161.5C 30.9063,161.027 31.573,160.027 31.5,158.5C 31.2627,157.209 31.596,156.209 32.5,155.5C 34.2132,154.365 34.8799,152.698 34.5,150.5C 35.6737,149.486 36.3404,148.153 36.5,146.5C 36.3284,145.508 36.6618,144.842 37.5,144.5C 38.9313,143.22 39.5979,141.553 39.5,139.5C 40.6737,138.486 41.3404,137.153 41.5,135.5C 41.7959,133.597 42.4625,131.93 43.5,130.5C 45.0075,128.819 46.0075,126.819 46.5,124.5C 46.5569,123.391 46.8902,122.391 47.5,121.5C 48.9313,120.22 49.5979,118.553 49.5,116.5C 50.9063,116.027 51.573,115.027 51.5,113.5C 52.2205,109.311 53.8872,105.645 56.5,102.5 Z"/></g>
<g><path style="opacity:0.91" fill="#6b645e" d="M 290.5,170.5 C 293.209,173.208 295.542,176.208 297.5,179.5C 293.337,177.92 291.004,174.92 290.5,170.5 Z"/></g>
<g><path style="opacity:0.027" fill="#d1cfbf" d="M 37.5,175.5 C 37.2671,178.542 36.2671,181.208 34.5,183.5C 34.7329,180.458 35.7329,177.792 37.5,175.5 Z"/></g>
<g><path style="opacity:0.999" fill="#2a1909" d="M 309.5,192.5 C 310.262,194.262 311.596,195.262 313.5,195.5C 314.167,195.5 314.5,195.833 314.5,196.5C 314.611,197.117 314.944,197.617 315.5,198C 304.839,198.5 294.172,198.667 283.5,198.5C 283.249,196.83 282.582,195.33 281.5,194C 282.167,193.667 282.833,193.333 283.5,193C 280.625,190.737 278.625,187.904 277.5,184.5C 276.5,184.5 275.5,184.5 274.5,184.5C 273.833,184.5 273.5,184.167 273.5,183.5C 273.573,181.973 272.906,180.973 271.5,180.5C 270.143,179.41 269.143,178.076 268.5,176.5C 268.25,174.326 267.25,172.659 265.5,171.5C 262.35,167.881 259.684,163.881 257.5,159.5C 257.443,158.391 257.11,157.391 256.5,156.5C 255.372,151.987 255.372,147.487 256.5,143C 255.391,140.953 254.724,138.787 254.5,136.5C 255.822,136.33 256.989,136.663 258,137.5C 258.5,137 259,136.5 259.5,136C 258.207,135.51 256.873,135.343 255.5,135.5C 255.413,132.402 255.913,132.068 257,134.5C 258.085,133.707 259.252,133.04 260.5,132.5C 262.727,137.997 264.894,143.663 267,149.5C 268.535,150.233 270.368,150.233 272.5,149.5C 274.18,151.362 275.847,153.195 277.5,155C 276.833,155.667 276.167,156.333 275.5,157C 277.5,158 279.5,159 281.5,160C 280.231,162.139 280.231,164.305 281.5,166.5C 282.192,165.975 282.692,165.308 283,164.5C 283.368,165.91 284.201,166.91 285.5,167.5C 286.614,168.723 286.781,170.056 286,171.5C 285.667,170.833 285.333,170.167 285,169.5C 284.49,171.829 285.156,173.829 287,175.5C 289.77,176.615 292.27,178.115 294.5,180C 294.167,180.333 293.833,180.667 293.5,181C 295.086,184.007 297.253,186.507 300,188.5C 300.414,188.043 300.914,187.709 301.5,187.5C 303.513,190.175 306.18,191.842 309.5,192.5 Z"/></g>
<g><path style="opacity:0.075" fill="#f0e9e7" d="M 567.5,176.5 C 568.674,177.514 569.34,178.847 569.5,180.5C 567.896,179.713 567.229,178.38 567.5,176.5 Z"/></g>
<g><path style="opacity:0.137" fill="#d5cdc4" d="M 134.5,178.5 C 135.87,181.619 136.87,184.952 137.5,188.5C 135.024,185.712 134.024,182.378 134.5,178.5 Z"/></g>
<g><path style="opacity:0.016" fill="#b7b1a7" d="M 271.5,180.5 C 272.906,180.973 273.573,181.973 273.5,183.5C 272.094,183.027 271.427,182.027 271.5,180.5 Z"/></g>
<g><path style="opacity:0.369" fill="#e4ded8" d="M 543.5,180.5 C 544.612,182.599 545.279,184.933 545.5,187.5C 543.837,185.562 543.171,183.228 543.5,180.5 Z"/></g>
<g><path style="opacity:0.039" fill="#e1deda" d="M 20.5,182.5 C 20.0075,184.819 19.0075,186.819 17.5,188.5C 17.461,185.911 18.461,183.911 20.5,182.5 Z"/></g>
<g><path style="opacity:0.361" fill="#afaba6" d="M 301.5,183.5 C 302.906,183.973 303.573,184.973 303.5,186.5C 302.094,186.027 301.427,185.027 301.5,183.5 Z"/></g>
<g><path style="opacity:1" fill="#90867d" d="M 569.5,181.5 C 571.065,183.509 572.065,185.843 572.5,188.5C 570.166,186.824 569.166,184.491 569.5,181.5 Z"/></g>
<g><path style="opacity:0.035" fill="#e5e1d6" d="M 161.5,182.5 C 162.931,183.78 163.598,185.447 163.5,187.5C 162.069,186.22 161.402,184.553 161.5,182.5 Z"/></g>
<g><path style="opacity:1" fill="#716c66" d="M 431.5,177.5 C 431.131,179.441 430.464,181.275 429.5,183C 429.957,183.414 430.291,183.914 430.5,184.5C 428.851,185.981 427.518,187.648 426.5,189.5C 426.5,189.167 426.5,188.833 426.5,188.5C 427.221,184.311 428.887,180.645 431.5,177.5 Z"/></g>
<g><path style="opacity:0.008" fill="#ccc9c4" d="M 303.5,186.5 C 305.833,186.833 307.167,188.167 307.5,190.5C 305.833,189.5 304.5,188.167 303.5,186.5 Z"/></g>
<g><path style="opacity:1" fill="#2c1b0d" d="M 476.5,95.5 C 476.261,97.4672 476.594,99.3005 477.5,101C 475.808,102.401 475.141,104.234 475.5,106.5C 473.027,106.604 472.361,107.604 473.5,109.5C 471.995,110.842 471.328,112.508 471.5,114.5C 471.443,115.609 471.11,116.609 470.5,117.5C 469.083,123.088 467.083,128.421 464.5,133.5C 465.333,135.829 467,137.329 469.5,138C 466.041,139.335 463.041,141.168 460.5,143.5C 456.516,143.472 455.516,145.139 457.5,148.5C 456.85,148.804 456.183,149.137 455.5,149.5C 453.676,152.968 452.676,156.635 452.5,160.5C 451.326,161.514 450.66,162.847 450.5,164.5C 450.204,166.403 449.537,168.07 448.5,169.5C 446.992,171.181 445.992,173.181 445.5,175.5C 445.279,178.067 444.612,180.401 443.5,182.5C 441.755,186.2 440.755,190.2 440.5,194.5C 440.768,196.099 440.434,197.432 439.5,198.5C 434.167,198.5 428.833,198.5 423.5,198.5C 423.5,197.167 423.5,195.833 423.5,194.5C 424.737,193.035 425.737,191.368 426.5,189.5C 427.518,187.648 428.851,185.981 430.5,184.5C 430.291,183.914 429.957,183.414 429.5,183C 430.464,181.275 431.131,179.441 431.5,177.5C 431.402,175.447 432.069,173.78 433.5,172.5C 436.153,170.152 437.487,167.152 437.5,163.5C 438.952,158.597 440.952,153.93 443.5,149.5C 445.2,148.984 446.533,147.984 447.5,146.5C 448.098,145.023 448.098,143.357 447.5,141.5C 448.988,136.533 450.988,131.866 453.5,127.5C 454.674,126.486 455.34,125.153 455.5,123.5C 456.708,122.766 458.041,122.433 459.5,122.5C 459.597,117.942 461.43,114.276 465,111.5C 465.89,105.85 468.39,100.683 472.5,96C 471.833,95.3333 471.167,94.6667 470.5,94C 473.628,91.6446 474.795,92.1446 474,95.5C 474.77,94.4019 475.603,94.4019 476.5,95.5 Z"/></g>
<g><path style="opacity:0.025" fill="#e2ded8" d="M 443.5,182.5 C 443.416,186.837 442.416,190.837 440.5,194.5C 440.755,190.2 441.755,186.2 443.5,182.5 Z"/></g>
<g><path style="opacity:0.004" fill="#e4e0dc" d="M 276.5,188.5 C 277.906,188.973 278.573,189.973 278.5,191.5C 277.094,191.027 276.427,190.027 276.5,188.5 Z"/></g>
<g><path style="opacity:0.992" fill="#8d867e" d="M 163.5,187.5 C 164.931,188.78 165.598,190.447 165.5,192.5C 163.787,191.365 163.12,189.698 163.5,187.5 Z"/></g>
<g><path style="opacity:0.984" fill="#5a4c42" d="M 274.5,184.5 C 275.5,184.5 276.5,184.5 277.5,184.5C 278.625,187.904 280.625,190.737 283.5,193C 282.833,193.333 282.167,193.667 281.5,194C 282.582,195.33 283.249,196.83 283.5,198.5C 281.478,196.469 279.811,194.135 278.5,191.5C 278.573,189.973 277.906,188.973 276.5,188.5C 275.326,187.486 274.66,186.153 274.5,184.5 Z"/></g>
<g><path style="opacity:0.043" fill="#edeade" d="M 572.5,188.5 C 574.104,189.287 574.771,190.62 574.5,192.5C 573.326,191.486 572.66,190.153 572.5,188.5 Z"/></g>
<g><path style="opacity:0.251" fill="#bebab6" d="M 309.5,191.5 C 311.167,192.5 312.5,193.833 313.5,195.5C 311.596,195.262 310.262,194.262 309.5,192.5C 309.5,192.167 309.5,191.833 309.5,191.5 Z"/></g>
<g><path style="opacity:0.067" fill="#dcd7d5" d="M 426.5,188.5 C 426.5,188.833 426.5,189.167 426.5,189.5C 425.737,191.368 424.737,193.035 423.5,194.5C 423.461,191.911 424.461,189.911 426.5,188.5 Z"/></g>
<g><path style="opacity:0.067" fill="#e9e6dc" d="M 33.5,187.5 C 33.7489,191.458 33.0823,195.124 31.5,198.5C 31.6459,194.613 32.3126,190.946 33.5,187.5 Z"/></g>
<g><path style="opacity:0.014" fill="#e7e4db" d="M 545.5,187.5 C 547.082,190.876 547.749,194.542 547.5,198.5C 546.778,198.082 546.278,197.416 546,196.5C 545.502,193.518 545.335,190.518 545.5,187.5 Z"/></g>
<g><path style="opacity:0.584" fill="#e9e4dd" d="M 15.5,193.5 C 14.962,195.117 14.6287,196.784 14.5,198.5C 20.1667,198.5 25.8333,198.5 31.5,198.5C 25.6812,199.653 19.6812,199.819 13.5,199C 12.5543,196.702 13.221,194.868 15.5,193.5 Z"/></g>
<g><path style="opacity:0.031" fill="#dcd8d0" d="M 166.5,194.5 C 168.22,195.751 168.553,197.251 167.5,199C 163.642,199.81 159.976,199.643 156.5,198.5C 159.833,198.5 163.167,198.5 166.5,198.5C 166.5,197.167 166.5,195.833 166.5,194.5 Z"/></g>
<g><path style="opacity:0.619" fill="#beb6b0" d="M 191.5,32.5 C 191.5,87.8333 191.5,143.167 191.5,198.5C 198.5,198.5 205.5,198.5 212.5,198.5C 205.098,199.827 197.598,199.827 190,198.5C 190.068,163.808 189.901,128.974 189.5,94C 189.5,73.1556 190.167,52.6556 191.5,32.5 Z"/></g>
<g><path style="opacity:0.557" fill="#bfb7aa" d="M 314.5,196.5 C 316.048,196.821 316.715,197.821 316.5,199.5C 305.321,199.828 294.321,199.495 283.5,198.5C 294.172,198.667 304.839,198.5 315.5,198C 314.944,197.617 314.611,197.117 314.5,196.5 Z"/></g>
<g><path style="opacity:0.988" fill="#aca59f" d="M 389.5,196.5 C 390.791,197.542 390.791,198.708 389.5,200C 382.321,200.821 375.321,200.655 368.5,199.5C 368.5,199.167 368.5,198.833 368.5,198.5C 373.833,198.5 379.167,198.5 384.5,198.5C 386.781,198.923 388.448,198.256 389.5,196.5 Z"/></g>
<g><path style="opacity:0.059" fill="#e3e0d5" d="M 423.5,194.5 C 423.5,195.833 423.5,197.167 423.5,198.5C 428.833,198.5 434.167,198.5 439.5,198.5C 434.015,199.652 428.349,199.818 422.5,199C 421.447,197.251 421.78,195.751 423.5,194.5 Z"/></g>
<g><path style="opacity:0.42" fill="#ddd7cc" d="M 574.5,192.5 C 575.391,194.291 576.391,196.124 577.5,198C 577.167,198.333 576.833,198.667 576.5,199C 566.658,199.825 556.991,199.658 547.5,198.5C 556.839,198.666 566.173,198.5 575.5,198C 574.594,196.301 574.261,194.467 574.5,192.5 Z"/></g>
<g><path style="opacity:0.854" fill="#280303" d="M 183.5,224.5 C 185.833,224.5 188.167,224.5 190.5,224.5C 190.5,240.167 190.5,255.833 190.5,271.5C 191.5,271.5 192.5,271.5 193.5,271.5C 193.357,273.262 193.691,274.929 194.5,276.5C 191.894,277.652 189.227,277.818 186.5,277C 185.299,276.097 184.465,274.931 184,273.5C 183.5,257.17 183.333,240.837 183.5,224.5 Z"/></g>
<g><path style="opacity:0.922" fill="#270303" d="M 241.5,224.5 C 243.833,224.5 246.167,224.5 248.5,224.5C 248.334,231.175 248.5,237.842 249,244.5C 254.652,240.257 260.819,239.423 267.5,242C 270.467,244.1 272.3,246.934 273,250.5C 274.613,258.77 273.28,266.437 269,273.5C 262.586,278.407 255.919,278.74 249,274.5C 246.865,276.278 244.365,276.945 241.5,276.5C 241.5,259.167 241.5,241.833 241.5,224.5 Z M 254.5,246.5 C 260.156,245.243 263.989,247.243 266,252.5C 267.091,258.097 266.424,263.43 264,268.5C 259.07,272.423 254.07,272.423 249,268.5C 248.333,262.5 248.333,256.5 249,250.5C 251.015,249.303 252.849,247.97 254.5,246.5 Z"/></g>
<g><path style="opacity:0.854" fill="#280303" d="M 318.5,224.5 C 320.833,224.5 323.167,224.5 325.5,224.5C 325.5,240.167 325.5,255.833 325.5,271.5C 326.5,271.5 327.5,271.5 328.5,271.5C 328.357,273.262 328.691,274.929 329.5,276.5C 326.894,277.652 324.227,277.818 321.5,277C 320.299,276.097 319.465,274.931 319,273.5C 318.5,257.17 318.333,240.837 318.5,224.5 Z"/></g>
<g><path style="opacity:0.864" fill="#280303" d="M 467.5,224.5 C 469.833,224.5 472.167,224.5 474.5,224.5C 474.333,235.838 474.5,247.172 475,258.5C 479.122,252.709 483.622,247.209 488.5,242C 491.167,241.333 493.833,241.333 496.5,242C 492.438,246.391 488.771,251.057 485.5,256C 489.578,262.821 493.912,269.487 498.5,276C 495.833,276.667 493.167,276.667 490.5,276C 487.277,271.042 483.944,266.209 480.5,261.5C 475.088,265.043 473.088,270.043 474.5,276.5C 472.167,276.5 469.833,276.5 467.5,276.5C 467.5,259.167 467.5,241.833 467.5,224.5 Z"/></g>
<g><path style="opacity:0.881" fill="#280303" d="M 151.5,227.5 C 157.732,226.939 163.732,227.772 169.5,230C 173.426,232.682 173.259,235.182 169,237.5C 160.428,231.447 152.761,232.447 146,240.5C 141.241,251.714 143.075,261.548 151.5,270C 164.055,274.569 169.055,270.403 166.5,257.5C 163.167,257.5 159.833,257.5 156.5,257.5C 156.5,255.5 156.5,253.5 156.5,251.5C 162.167,251.5 167.833,251.5 173.5,251.5C 173.666,258.508 173.5,265.508 173,272.5C 166.617,277.266 159.451,278.766 151.5,277C 143.322,274.498 138.488,268.998 137,260.5C 133.311,245.426 138.144,234.426 151.5,227.5 Z"/></g>
<g><path style="opacity:0.847" fill="#280303" d="M 352.5,228.5 C 355.572,228.183 358.572,228.516 361.5,229.5C 365.633,240.398 369.466,251.398 373,262.5C 376.537,251.387 380.371,240.387 384.5,229.5C 387.428,228.516 390.428,228.183 393.5,228.5C 393.5,244.5 393.5,260.5 393.5,276.5C 391.167,276.5 388.833,276.5 386.5,276.5C 386.439,264.13 386.606,251.797 387,239.5C 383.731,249.974 380.064,260.307 376,270.5C 373.959,271.423 371.792,271.756 369.5,271.5C 366.308,261.09 362.808,250.757 359,240.5C 359.391,252.464 359.557,264.464 359.5,276.5C 357.167,276.5 354.833,276.5 352.5,276.5C 352.5,260.5 352.5,244.5 352.5,228.5 Z"/></g>
<g><path style="opacity:0.884" fill="#290303" d="M 540.5,229.5 C 542.5,229.5 544.5,229.5 546.5,229.5C 546.5,233.5 546.5,237.5 546.5,241.5C 549.5,241.5 552.5,241.5 555.5,241.5C 555.5,243.167 555.5,244.833 555.5,246.5C 552.5,246.5 549.5,246.5 546.5,246.5C 546.334,254.174 546.5,261.841 547,269.5C 549.37,272.286 552.204,273.12 555.5,272C 556.167,273.333 556.833,274.667 557.5,276C 552.5,278 547.5,278 542.5,276C 541.54,274.581 540.707,273.081 540,271.5C 539.5,263.173 539.334,254.84 539.5,246.5C 537.833,246.5 536.167,246.5 534.5,246.5C 534.5,244.833 534.5,243.167 534.5,241.5C 536.167,241.5 537.833,241.5 539.5,241.5C 539.646,237.481 539.979,233.481 540.5,229.5 Z"/></g>
<g><path style="opacity:0.887" fill="#280303" d="M 210.5,240.5 C 229.506,239.789 236.672,248.789 232,267.5C 227.527,276.482 220.36,279.649 210.5,277C 203.032,273.408 199.365,267.408 199.5,259C 199.491,250.5 203.157,244.334 210.5,240.5 Z M 212.5,246.5 C 222.677,246.184 227.177,251.184 226,261.5C 224.745,269.436 220.245,272.603 212.5,271C 204.565,262.837 204.565,254.671 212.5,246.5 Z"/></g>
<g><path style="opacity:0.884" fill="#280303" d="M 288.5,240.5 C 292.846,240.334 297.179,240.501 301.5,241C 305.88,243.925 308.047,248.091 308,253.5C 308.5,261.159 308.666,268.826 308.5,276.5C 306.473,276.662 304.473,276.495 302.5,276C 301.874,275.25 301.374,274.416 301,273.5C 296.483,277.242 291.316,278.409 285.5,277C 279.198,272.829 277.864,267.329 281.5,260.5C 286.777,256.508 292.777,254.341 299.5,254C 301.018,251.075 300.351,248.742 297.5,247C 292.662,246.001 288.162,246.834 284,249.5C 282.48,248.303 281.313,246.803 280.5,245C 283.099,243.205 285.766,241.705 288.5,240.5 Z M 295.5,259.5 C 297.5,259.5 299.5,259.5 301.5,259.5C 303.021,266.971 300.021,270.971 292.5,271.5C 287.496,271.662 285.662,269.329 287,264.5C 289.523,262.173 292.357,260.507 295.5,259.5 Z"/></g>
<g><path style="opacity:0.884" fill="#280303" d="M 412.5,240.5 C 416.514,240.334 420.514,240.501 424.5,241C 426.624,242.122 428.457,243.622 430,245.5C 431.426,255.754 431.926,266.088 431.5,276.5C 429.5,276.5 427.5,276.5 425.5,276.5C 425.649,275.448 425.483,274.448 425,273.5C 420.139,277.284 414.639,278.451 408.5,277C 402.851,272.419 401.684,266.919 405,260.5C 410.21,256.762 416.044,254.595 422.5,254C 424.842,251.581 424.509,249.247 421.5,247C 416.518,246.04 411.851,246.873 407.5,249.5C 405.861,248.084 405.027,246.417 405,244.5C 407.514,242.996 410.014,241.662 412.5,240.5 Z M 419.5,259.5 C 421.167,259.5 422.833,259.5 424.5,259.5C 425.692,269.427 421.358,273.093 411.5,270.5C 409.162,267.244 409.829,264.411 413.5,262C 415.611,261.155 417.611,260.322 419.5,259.5 Z"/></g>
<g><path style="opacity:0.865" fill="#290404" d="M 454.5,240.5 C 457.167,240.5 459.833,240.5 462.5,240.5C 462.643,242.262 462.309,243.929 461.5,245.5C 456.296,245.681 452.462,248.015 450,252.5C 449.5,260.493 449.334,268.493 449.5,276.5C 447.167,276.5 444.833,276.5 442.5,276.5C 442.5,264.833 442.5,253.167 442.5,241.5C 444.5,241.5 446.5,241.5 448.5,241.5C 448.343,242.873 448.51,244.207 449,245.5C 450.73,243.598 452.563,241.931 454.5,240.5 Z"/></g>
<g><path style="opacity:0.893" fill="#280303" d="M 511.5,240.5 C 525.841,239.34 532.174,245.84 530.5,260C 522.841,260.5 515.174,260.666 507.5,260.5C 509.884,271.686 516.217,274.686 526.5,269.5C 530.733,272.995 530.066,275.495 524.5,277C 505.856,279.355 498.023,271.188 501,252.5C 502.963,247.044 506.463,243.044 511.5,240.5 Z M 515.5,245.5 C 521.651,245.985 524.651,249.318 524.5,255.5C 518.794,255.829 513.128,255.495 507.5,254.5C 508.822,250.185 511.488,247.185 515.5,245.5 Z"/></g>
<g><path style="opacity:0.859" fill="#280303" d="M 567.5,240.5 C 571.514,240.334 575.514,240.501 579.5,241C 585.147,242.421 585.813,244.921 581.5,248.5C 578.397,246.517 575.064,245.684 571.5,246C 567.777,247.259 566.777,249.592 568.5,253C 572.918,254.806 577.251,256.806 581.5,259C 586.383,264.058 586.716,269.391 582.5,275C 577.092,277.444 571.426,278.11 565.5,277C 562.827,275.999 560.493,274.499 558.5,272.5C 559.439,270.947 560.606,269.613 562,268.5C 564.994,270.611 568.327,271.944 572,272.5C 578.93,271.25 580.097,268.083 575.5,263C 571.714,261.607 568.048,259.941 564.5,258C 558.644,250.967 559.644,245.134 567.5,240.5 Z"/></g>
</svg>
