<svg version="1.1" id="Layer_1" xmlns="http://www.w3.org/2000/svg" xmlns:xlink="http://www.w3.org/1999/xlink" x="0px" y="0px"
	 width="100%" viewBox="0 0 504 157" enable-background="new 0 0 504 157" xml:space="preserve">
<path fill="#F7FAFB" opacity="1.000000" stroke="none" 
	d="
M325.000000,158.000000 
	C216.666702,158.000000 108.833412,158.000000 1.000087,158.000000 
	C1.000058,105.666725 1.000058,53.333447 1.000029,1.000129 
	C168.999878,1.000086 336.999756,1.000086 504.999725,1.000043 
	C504.999817,53.333195 504.999817,105.666389 504.999908,157.999786 
	C445.166656,158.000000 385.333344,158.000000 325.000000,158.000000 
M426.301910,139.423935 
	C428.786499,139.224289 431.271118,139.024643 433.802277,137.934036 
	C434.122223,130.700409 432.710724,123.309258 434.745636,116.103645 
	C434.816528,116.100410 433.875610,116.143410 432.124023,116.160973 
	C430.772461,116.170067 429.420868,116.179161 427.387085,115.993195 
	C426.600220,115.993195 425.813385,115.993195 425.673126,115.993195 
	C428.253235,123.634186 426.803986,131.303375 426.301910,139.423935 
M406.969147,118.866859 
	C406.969147,125.821846 406.969147,132.776840 406.969147,140.139984 
	C408.194824,139.896759 410.708862,139.397873 413.082825,137.982651 
	C413.082825,131.394089 413.082825,124.805519 413.082825,116.995514 
	C416.174164,118.455841 418.417206,119.515442 420.834351,120.657280 
	C420.669830,119.240189 420.493103,117.718109 420.322021,116.244354 
	C417.192261,116.244354 414.558716,116.244354 411.119019,116.169022 
	C409.770813,116.194138 408.422607,116.219246 406.195190,116.036819 
	C403.932831,116.036819 401.670441,116.036819 399.275146,116.036819 
	C399.275146,118.251091 399.275146,119.806610 399.275146,120.405258 
	C401.844940,119.567871 404.369141,118.745346 406.969147,118.866859 
M101.872032,138.003296 
	C101.872032,131.457138 101.872032,124.910988 101.872032,116.795364 
	C104.951889,118.522598 107.041122,119.694275 108.973953,120.778236 
	C108.973953,119.686623 108.973953,118.096832 108.973953,116.268845 
	C106.124718,116.268845 103.524796,116.268845 100.120537,116.166595 
	C98.771454,116.200676 97.422379,116.234756 95.219116,116.059578 
	C92.974243,116.059578 90.729362,116.059578 88.484489,116.059578 
	C88.437866,116.467545 88.391235,116.875511 88.344612,117.283470 
	C90.599251,117.691231 92.853897,118.098984 94.973572,118.482330 
	C94.973572,125.387314 94.973572,132.151505 94.358315,139.297867 
	C96.919868,139.169449 99.481430,139.041031 101.872032,138.003296 
M120.127090,116.153542 
	C118.770905,116.165222 117.414726,116.176903 115.404495,115.982025 
	C114.630600,116.035500 113.856705,116.088982 113.703278,116.099579 
	C116.967331,123.616203 114.897980,131.278046 114.515549,139.131195 
	C117.081894,139.061584 119.648232,138.991989 122.069710,138.019699 
	C122.069710,135.128128 122.069710,132.236557 122.069710,128.854980 
	C124.973251,128.854980 127.399055,128.854980 130.018738,129.750839 
	C129.835190,133.121521 129.651642,136.492188 129.472427,139.783066 
	C131.445541,139.783066 134.043579,139.783066 135.974411,139.783066 
	C135.974411,132.069290 135.974411,124.591942 135.974411,117.161301 
	C133.353683,117.161301 131.397110,117.161301 129.739990,117.161301 
	C129.739990,120.566277 129.739990,123.776596 128.888016,126.913879 
	C126.660843,126.913879 124.433678,126.913879 121.387970,126.913879 
	C122.044685,122.744682 122.571213,119.401947 123.100777,116.039948 
	C122.851128,116.057129 121.895660,116.122902 120.127090,116.153542 
M172.623230,139.079788 
	C175.744278,139.338364 178.865326,139.596954 182.767136,139.983002 
	C189.741364,138.820404 193.056061,135.764801 193.797424,129.814926 
	C194.549103,123.782104 191.951660,119.442284 185.434479,116.442879 
	C183.281586,116.356033 181.128677,116.269188 178.150223,116.152901 
	C176.773575,116.162048 175.396927,116.171204 173.373505,115.976784 
	C172.607407,116.033096 171.841293,116.089409 172.446655,116.044914 
	C174.274277,123.639023 173.099472,131.193542 172.623230,139.079788 
M448.376160,116.030479 
	C441.247498,119.325760 438.285461,125.159439 440.308502,131.919510 
	C441.881927,137.177170 445.687073,140.036499 449.647797,139.543503 
	C448.768219,137.584808 447.808685,135.448090 446.929077,132.713882 
	C446.728210,132.178696 446.527344,131.643509 446.115295,130.260422 
	C446.167297,128.811844 446.219299,127.363266 446.696686,125.427139 
	C446.745026,124.783653 446.793365,124.140167 446.716644,122.803040 
	C448.178345,120.879135 449.640045,118.955231 451.761230,117.092850 
	C452.811859,117.397255 453.862518,117.701653 455.526001,118.180817 
	C456.064636,119.045090 456.603271,119.909370 457.053986,121.481880 
	C457.356842,122.316940 457.659729,123.152000 458.219513,124.850616 
	C458.140350,127.235756 458.061188,129.620895 457.443604,132.479965 
	C457.346710,133.419189 457.249817,134.358414 457.073853,135.961700 
	C455.914246,137.260818 454.754639,138.559952 453.508575,139.955902 
	C459.846344,139.936218 464.270294,135.590851 464.806580,129.071930 
	C465.337952,122.612831 461.892975,117.807259 455.810638,116.089775 
	C453.557892,115.983719 451.305115,115.877663 448.376160,116.030479 
M271.410095,116.004936 
	C270.622101,116.004936 269.834137,116.004936 269.674683,116.004936 
	C272.297821,123.645058 270.848053,131.313904 270.297058,139.480011 
	C275.506836,139.652771 280.718994,139.957962 285.923889,139.862930 
	C286.754303,139.847778 287.551971,138.037323 288.366516,137.054794 
	C284.383911,137.683792 281.279907,138.174042 277.974365,137.798355 
	C277.974365,131.283035 277.974365,124.767723 277.974365,117.549072 
	C281.106140,118.154831 283.569244,118.631248 286.291260,119.157745 
	C286.386932,118.408569 286.530731,117.282608 286.668823,116.201401 
	C283.140900,116.201401 280.023743,116.201401 276.104889,116.163742 
	C274.767639,116.177139 273.430389,116.190536 271.410095,116.004936 
M149.761337,121.826927 
	C151.166428,120.174004 152.571518,118.521080 154.719131,116.954369 
	C156.530426,118.491516 158.341705,120.028664 160.074448,122.305786 
	C160.347610,123.188065 160.620773,124.070343 161.123734,125.821259 
	C161.025848,127.903702 160.927963,129.986145 160.362305,132.529602 
	C160.293488,133.177048 160.224670,133.824478 160.195068,135.149353 
	C159.002975,136.715714 157.810867,138.282059 156.457855,140.059860 
	C160.849609,140.531464 163.716629,138.210052 165.703690,134.802292 
	C168.428452,130.129349 168.449448,125.227852 165.382782,120.688995 
	C162.217300,116.003906 157.565033,114.914322 151.482483,116.022614 
	C144.511124,118.780785 141.580688,123.783806 142.857132,130.748367 
	C143.900375,136.440582 147.862534,139.846832 152.883133,139.781906 
	C151.934830,138.032974 150.894318,136.113953 149.956635,133.245392 
	C149.939255,129.660751 149.921875,126.076096 149.761337,121.826927 
M204.761337,121.826920 
	C206.166428,120.173996 207.571518,118.521072 209.719131,116.954361 
	C211.530426,118.491508 213.341721,120.028656 215.074448,122.305786 
	C215.347610,123.188065 215.620773,124.070351 216.123749,125.821259 
	C216.025864,127.903702 215.927979,129.986145 215.362320,132.529602 
	C215.293503,133.177048 215.224686,133.824478 215.195068,135.149353 
	C214.002960,136.715698 212.810837,138.282043 211.457794,140.059845 
	C215.849609,140.531464 218.716629,138.210052 220.703690,134.802292 
	C223.428452,130.129349 223.449448,125.227852 220.382782,120.688995 
	C217.217300,116.003906 212.565033,114.914322 206.482483,116.022614 
	C199.511139,118.780777 196.580627,123.783905 197.857101,130.748367 
	C198.900406,136.440613 202.862534,139.846832 207.883133,139.781906 
	C206.935303,138.033813 205.894547,136.114365 204.956635,133.245392 
	C204.939255,129.660751 204.921890,126.076096 204.761337,121.826920 
M40.761314,121.826950 
	C42.166389,120.174019 43.571468,118.521088 45.719067,116.954369 
	C47.530376,118.491516 49.341690,120.028664 51.074436,122.305779 
	C51.347599,123.188057 51.620766,124.070343 52.123734,125.821259 
	C52.025848,127.903702 51.927963,129.986145 51.362286,132.529633 
	C51.293457,133.177078 51.224628,133.824524 51.195045,135.149399 
	C50.002949,136.715729 48.810848,138.282059 47.530949,139.963760 
	C51.919853,140.663559 54.710358,138.165771 56.697563,134.798279 
	C59.446068,130.140686 59.449402,125.227821 56.382744,120.688965 
	C53.217251,116.003822 48.564980,114.914383 42.482452,116.022614 
	C35.511124,118.780800 32.580685,123.783813 33.857105,130.748337 
	C34.900341,136.440521 38.862484,139.846786 43.883118,139.781906 
	C42.935284,138.033813 41.894547,136.114380 40.956615,133.245422 
	C40.939232,129.660782 40.921844,126.076126 40.761314,121.826950 
M379.788147,125.169228 
	C377.907806,129.185425 376.027496,133.201630 374.237122,137.025635 
	C378.076569,135.225082 381.489136,133.624710 385.241211,132.664612 
	C386.386627,134.879486 387.532043,137.094360 388.954407,139.844711 
	C390.437378,139.844711 393.206055,139.844711 395.822723,139.844711 
	C392.212952,131.837219 388.647797,123.928810 384.601990,114.954102 
	C382.831146,119.021584 381.550629,121.962807 379.788147,125.169228 
M309.527588,138.879547 
	C314.838684,135.639297 316.837006,131.435440 315.833313,125.614182 
	C314.941956,120.444389 311.907745,117.645332 305.375885,116.273712 
	C301.648499,116.273712 297.921112,116.273712 294.967194,116.273712 
	C296.583679,124.199043 296.433716,131.975723 294.971924,140.465912 
	C299.390228,139.980988 304.102722,139.463760 309.527588,138.879547 
M485.630829,128.466583 
	C483.671509,125.989059 481.478760,123.658379 479.806793,121.000122 
	C477.199951,116.855652 473.861450,114.977631 468.773468,116.509148 
	C475.150818,122.648354 472.257782,130.282913 472.745239,137.522354 
	C472.745239,132.680298 472.745239,127.838234 472.745239,121.486183 
	C478.238068,128.199600 482.719635,133.677063 487.415558,139.696411 
	C487.922546,139.655060 488.873383,139.617630 488.873779,139.571808 
	C488.939331,132.166931 488.936554,124.761429 488.936554,117.355965 
	C488.387177,117.342506 487.837799,117.329041 487.288422,117.315575 
	C487.288422,119.127670 487.459564,120.960403 487.244110,122.746506 
	C486.987885,124.870270 486.399445,126.953964 485.630829,128.466583 
M240.674881,123.708374 
	C239.172440,122.828430 237.289612,122.251305 236.278091,120.980583 
	C235.328995,119.788261 235.301270,117.862549 234.867126,116.255905 
	C232.143845,116.255905 229.216614,116.255905 226.229019,116.255905 
	C228.829865,120.227234 231.426880,124.010521 233.829422,127.913521 
	C236.145325,131.675827 238.260376,135.561783 240.661835,139.738068 
	C242.650757,139.738068 245.678375,139.738068 248.437546,139.738068 
	C245.741257,135.677078 242.921722,131.818466 240.601013,127.680099 
	C239.969513,126.553963 240.840973,124.584999 240.953186,122.876778 
	C240.953186,122.876778 241.189270,122.913910 241.189270,122.913910 
	C241.189270,122.913910 241.007172,123.006081 240.674881,123.708374 
M77.716156,116.692360 
	C77.431793,116.513252 77.155983,116.525520 76.214630,116.494705 
	C75.507805,116.413429 74.800972,116.332161 73.263741,115.993942 
	C71.826195,116.055786 70.388641,116.117630 68.134277,116.139046 
	C66.771584,116.152283 65.408890,116.165520 63.389744,115.977509 
	C62.616829,116.030159 61.843914,116.082809 60.735455,116.158310 
	C63.854790,119.010696 64.325119,124.157753 62.493690,139.140228 
	C65.160164,139.504089 67.826637,139.867950 70.028915,140.168472 
	C70.028915,136.021271 70.028915,132.677414 70.028915,129.024246 
	C75.390381,132.677399 75.480621,142.365707 84.804329,139.707642 
	C82.426414,136.116898 80.069458,132.557785 77.730942,129.026550 
	C83.677673,123.999611 83.705299,120.781784 77.716156,116.692360 
M293.999969,55.358772 
	C293.999969,40.303013 293.999969,25.247255 293.999969,10.352318 
	C276.929291,10.352318 260.559235,10.352318 244.355255,10.352318 
	C244.355255,27.076704 244.355255,43.446823 244.355255,59.998440 
	C260.165009,59.998440 275.620941,59.918495 291.074707,60.065105 
	C294.209412,60.094849 294.134918,58.432034 293.999969,55.358772 
M346.990814,126.304115 
	C346.569794,135.180527 350.919525,140.549850 357.751892,139.456879 
	C352.562897,134.719543 352.184570,128.876434 353.912201,122.642906 
	C355.094849,118.375824 358.275513,116.719460 363.079285,116.855377 
	C355.586670,114.367157 350.396301,117.380096 346.990814,126.304115 
M327.779236,125.622681 
	C327.779236,122.843300 327.779236,120.063911 327.779236,117.215080 
	C325.549561,117.215080 323.468689,117.215080 322.022644,117.215080 
	C322.022644,122.702972 321.836090,127.946289 322.074554,133.170212 
	C322.318207,138.507462 325.261505,140.532227 330.609131,139.417236 
	C326.022308,135.910141 328.374268,130.922668 327.779236,125.622681 
M372.526398,139.100754 
	C372.284973,139.237366 372.043579,139.373978 371.802185,139.510605 
	C372.051361,139.635361 372.349884,139.907303 372.536346,139.844849 
	C372.735901,139.778015 372.829926,139.396072 372.526398,139.100754 
z"/>
<path fill="#4A5151" opacity="1.000000" stroke="none" 
	d="
M293.999878,55.841282 
	C294.134918,58.432034 294.209412,60.094849 291.074707,60.065105 
	C275.620941,59.918495 260.165009,59.998440 244.355255,59.998440 
	C244.355255,43.446823 244.355255,27.076704 244.355255,10.352318 
	C260.559235,10.352318 276.929291,10.352318 293.999969,10.352318 
	C293.999969,25.247255 293.999969,40.303013 293.999878,55.841282 
M286.060669,25.572470 
	C286.060669,23.159746 286.060669,20.747023 286.060669,18.307789 
	C274.358582,18.307789 263.485168,18.307789 252.499954,18.307789 
	C252.499954,29.343891 252.499954,40.021053 252.499954,51.078331 
	C258.377472,51.078331 263.842316,51.078335 269.307129,51.078335 
	C274.725891,51.078335 280.144653,51.078331 286.060791,51.078331 
	C286.060791,42.428783 286.060791,34.490456 286.060669,25.572470 
z"/>
<path fill="#535556" opacity="1.000000" stroke="none" 
	d="
M74.094147,116.250885 
	C74.800972,116.332161 75.507805,116.413429 76.712509,116.743950 
	C77.210396,116.993195 77.616585,117.085342 77.616585,117.085342 
	C77.616585,117.085342 78.025368,117.005547 78.025368,117.005547 
	C83.705299,120.781784 83.677673,123.999611 77.730942,129.026550 
	C80.069458,132.557785 82.426414,136.116898 84.804329,139.707642 
	C75.480621,142.365707 75.390381,132.677399 70.028915,129.024246 
	C70.028915,132.677414 70.028915,136.021271 70.028915,140.168472 
	C67.826637,139.867950 65.160164,139.504089 63.124771,138.710007 
	C63.852634,130.912781 63.949413,123.545769 64.046196,116.178757 
	C65.408890,116.165520 66.771584,116.152283 68.563370,116.605560 
	C69.391777,120.660751 69.791077,124.249443 70.558121,127.851517 
	C72.691238,126.768303 75.706139,125.879082 75.930595,124.526726 
	C76.271454,122.473030 74.675293,120.097832 73.919052,117.589340 
	C73.988823,116.963287 74.041481,116.607086 74.094147,116.250885 
z"/>
<path fill="#595C5E" opacity="1.000000" stroke="none" 
	d="
M241.022644,123.002853 
	C240.840973,124.584999 239.969513,126.553963 240.601013,127.680099 
	C242.921722,131.818466 245.741257,135.677078 248.437546,139.738068 
	C245.678375,139.738068 242.650757,139.738068 240.661835,139.738068 
	C238.260376,135.561783 236.145325,131.675827 233.829422,127.913521 
	C231.426880,124.010521 228.829865,120.227234 226.229019,116.255905 
	C229.216614,116.255905 232.143845,116.255905 234.867126,116.255905 
	C235.301270,117.862549 235.328995,119.788261 236.278091,120.980583 
	C237.289612,122.251305 239.172440,122.828430 240.838684,123.360260 
	C241.002502,123.012154 241.022644,123.002853 241.022644,123.002853 
z"/>
<path fill="#27B7A1" opacity="1.000000" stroke="none" 
	d="
M487.201233,139.154526 
	C482.719635,133.677063 478.238068,128.199600 472.745239,121.486183 
	C472.745239,127.838234 472.745239,132.680298 472.745239,137.522354 
	C472.257782,130.282913 475.150818,122.648354 468.773468,116.509148 
	C473.861450,114.977631 477.199951,116.855652 479.806793,121.000122 
	C481.478760,123.658379 483.671509,125.989059 485.947144,129.105865 
	C486.576080,132.881607 486.888641,136.018066 487.201233,139.154526 
z"/>
<path fill="#31BBA9" opacity="1.000000" stroke="none" 
	d="
M308.815216,138.946533 
	C304.102722,139.463760 299.390228,139.980988 294.971924,140.465912 
	C296.433716,131.975723 296.583679,124.199043 294.967194,116.273712 
	C297.921112,116.273712 301.648499,116.273712 305.712158,116.784607 
	C306.032043,117.512215 306.015625,117.728920 305.543457,117.913330 
	C304.002319,118.448158 301.995758,118.981552 301.973572,119.587608 
	C301.742920,125.886368 301.831543,132.196808 301.831543,139.068787 
	C304.181580,138.555298 305.570282,138.251862 307.111084,138.184158 
	C307.780518,138.595428 308.297852,138.770981 308.815216,138.946533 
z"/>
<path fill="#595A5C" opacity="1.000000" stroke="none" 
	d="
M51.830078,132.068588 
	C51.927963,129.986145 52.025848,127.903702 52.074615,125.031952 
	C51.734665,123.350365 51.443832,122.458084 51.153004,121.565811 
	C49.341690,120.028664 47.530376,118.491516 45.194832,116.707428 
	C44.191616,116.328041 43.712631,116.195595 43.233646,116.063156 
	C48.564980,114.914383 53.217251,116.003822 56.382744,120.688965 
	C59.449402,125.227821 59.446068,130.140686 56.697563,134.798279 
	C54.710358,138.165771 51.919853,140.663559 47.530949,139.963760 
	C48.810848,138.282059 50.002949,136.715729 51.422485,134.581558 
	C51.709972,133.365341 51.770023,132.716965 51.830078,132.068588 
z"/>
<path fill="#27B7A3" opacity="1.000000" stroke="none" 
	d="
M347.058105,125.938553 
	C350.396301,117.380096 355.586670,114.367157 363.079285,116.855377 
	C358.275513,116.719460 355.094849,118.375824 353.912201,122.642906 
	C352.184570,128.876434 352.562897,134.719543 357.751892,139.456879 
	C350.919525,140.549850 346.569794,135.180527 347.058105,125.938553 
z"/>
<path fill="#595A5C" opacity="1.000000" stroke="none" 
	d="
M160.830078,132.068588 
	C160.927963,129.986145 161.025848,127.903702 161.074615,125.031952 
	C160.734650,123.350365 160.443832,122.458084 160.153000,121.565811 
	C158.341705,120.028664 156.530426,118.491516 154.194885,116.707428 
	C153.191650,116.328041 152.712662,116.195595 152.233673,116.063141 
	C157.565033,114.914322 162.217300,116.003906 165.382782,120.688995 
	C168.449448,125.227852 168.428452,130.129349 165.703690,134.802292 
	C163.716629,138.210052 160.849609,140.531464 156.457855,140.059860 
	C157.810867,138.282059 159.002975,136.715714 160.422516,134.581528 
	C160.709991,133.365326 160.770035,132.716965 160.830078,132.068588 
z"/>
<path fill="#595A5C" opacity="1.000000" stroke="none" 
	d="
M215.153000,121.565811 
	C213.341721,120.028656 211.530426,118.491508 209.194885,116.707428 
	C208.191650,116.328049 207.712662,116.195595 207.233673,116.063148 
	C212.565033,114.914322 217.217300,116.003906 220.382782,120.688995 
	C223.449448,125.227852 223.428452,130.129349 220.703690,134.802292 
	C218.716629,138.210052 215.849609,140.531464 211.457794,140.059845 
	C212.810837,138.282043 214.002960,136.715698 215.422516,134.581528 
	C215.709991,133.365326 215.770035,132.716965 215.830078,132.068588 
	C215.927979,129.986145 216.025864,127.903702 216.074615,125.031952 
	C215.734650,123.350365 215.443832,122.458084 215.153000,121.565811 
z"/>
<path fill="#25B7A4" opacity="1.000000" stroke="none" 
	d="
M380.270111,124.904037 
	C381.550629,121.962807 382.831146,119.021584 384.601990,114.954102 
	C388.647797,123.928810 392.212952,131.837219 395.822723,139.844711 
	C393.206055,139.844711 390.437378,139.844711 388.954407,139.844711 
	C387.532043,137.094360 386.386627,134.879486 385.318481,132.144440 
	C384.132782,129.044327 385.839813,124.199158 380.270111,124.904037 
z"/>
<path fill="#55585D" opacity="1.000000" stroke="none" 
	d="
M42.858047,116.042877 
	C43.712631,116.195595 44.191616,116.328041 44.823570,116.664322 
	C43.571468,118.521088 42.166389,120.174019 40.538212,122.503006 
	C40.494675,126.851036 40.674244,130.522995 40.853813,134.194962 
	C41.894547,136.114380 42.935284,138.033813 43.883118,139.781906 
	C38.862484,139.846786 34.900341,136.440521 33.857105,130.748337 
	C32.580685,123.783813 35.511124,118.780800 42.858047,116.042877 
z"/>
<path fill="#55585D" opacity="1.000000" stroke="none" 
	d="
M206.858078,116.042877 
	C207.712662,116.195595 208.191650,116.328049 208.823624,116.664322 
	C207.571518,118.521072 206.166428,120.173996 204.538239,122.502968 
	C204.494690,126.850983 204.674240,130.522949 204.853790,134.194916 
	C205.894547,136.114365 206.935303,138.033813 207.883133,139.781906 
	C202.862534,139.846832 198.900406,136.440613 197.857101,130.748367 
	C196.580627,123.783905 199.511139,118.780777 206.858078,116.042877 
z"/>
<path fill="#55585D" opacity="1.000000" stroke="none" 
	d="
M151.858078,116.042877 
	C152.712662,116.195595 153.191650,116.328041 153.823624,116.664322 
	C152.571518,118.521080 151.166428,120.174004 149.538239,122.502975 
	C149.494690,126.850983 149.674240,130.522949 149.853790,134.194916 
	C150.894318,136.113953 151.934830,138.032974 152.883133,139.781906 
	C147.862534,139.846832 143.900375,136.440582 142.857132,130.748367 
	C141.580688,123.783806 144.511124,118.780785 151.858078,116.042877 
z"/>
<path fill="#575A5D" opacity="1.000000" stroke="none" 
	d="
M129.739990,126.986908 
	C129.739990,123.776596 129.739990,120.566277 129.739990,117.161301 
	C131.397110,117.161301 133.353683,117.161301 135.974411,117.161301 
	C135.974411,124.591942 135.974411,132.069290 135.974411,139.783066 
	C134.043579,139.783066 131.445541,139.783066 129.472427,139.783066 
	C129.651642,136.492188 129.835190,133.121521 129.971649,128.993652 
	C129.863052,127.819954 129.801529,127.403427 129.739990,126.986908 
z"/>
<path fill="#1CB4A0" opacity="1.000000" stroke="none" 
	d="
M278.175873,138.664291 
	C281.279907,138.174042 284.383911,137.683792 288.366516,137.054794 
	C287.551971,138.037323 286.754303,139.847778 285.923889,139.862930 
	C280.718994,139.957962 275.506836,139.652771 270.901611,138.969788 
	C271.701813,131.041016 271.897461,123.622475 272.093140,116.203934 
	C273.430389,116.190536 274.767639,116.177139 276.524139,116.636147 
	C276.921753,122.512253 276.792816,127.918861 276.939056,133.318008 
	C276.987610,135.109955 277.743408,136.882751 278.175873,138.664291 
z"/>
<path fill="#2CB9A7" opacity="1.000000" stroke="none" 
	d="
M457.141907,120.773651 
	C456.603271,119.909370 456.064636,119.045090 455.254395,117.793678 
	C455.322601,117.201111 455.662415,116.995674 456.002197,116.790245 
	C461.892975,117.807259 465.337952,122.612831 464.806580,129.071930 
	C464.270294,135.590851 459.846344,139.936218 453.508575,139.955902 
	C454.754639,138.559952 455.914246,137.260818 457.359802,135.372391 
	C457.757843,133.857407 457.869934,132.931717 457.982025,132.006042 
	C458.061188,129.620895 458.140350,127.235756 458.144592,124.074341 
	C457.760437,122.456581 457.451172,121.615112 457.141907,120.773651 
z"/>
<path fill="#595D60" opacity="1.000000" stroke="none" 
	d="
M186.077560,116.916519 
	C191.951660,119.442284 194.549103,123.782104 193.797424,129.814926 
	C193.056061,135.764801 189.741364,138.820404 182.380127,139.714874 
	C181.993134,139.446762 181.997772,139.037933 182.314163,138.879089 
	C189.288681,134.573578 189.424301,122.730110 183.099136,117.574783 
	C184.244934,117.179573 185.161240,117.048050 186.077560,116.916519 
z"/>
<path fill="#2CB9A7" opacity="1.000000" stroke="none" 
	d="
M327.779114,126.093414 
	C328.374268,130.922668 326.022308,135.910141 330.609131,139.417236 
	C325.261505,140.532227 322.318207,138.507462 322.074554,133.170212 
	C321.836090,127.946289 322.022644,122.702972 322.022644,117.215080 
	C323.468689,117.215080 325.549561,117.215080 327.779236,117.215080 
	C327.779236,120.063911 327.779236,122.843300 327.779114,126.093414 
z"/>
<path fill="#27B7A3" opacity="1.000000" stroke="none" 
	d="
M446.849182,133.311371 
	C447.808685,135.448090 448.768219,137.584808 449.647797,139.543503 
	C445.687073,140.036499 441.881927,137.177170 440.308502,131.919510 
	C438.285461,125.159439 441.247498,119.325760 449.056061,115.946686 
	C450.191193,116.252365 450.646454,116.641846 451.101715,117.031326 
	C449.640045,118.955231 448.178345,120.879135 446.553925,123.395561 
	C446.351227,124.630287 446.311279,125.272484 446.271301,125.914688 
	C446.219299,127.363266 446.167297,128.811844 446.159912,130.975983 
	C446.419403,132.231476 446.634277,132.771423 446.849182,133.311371 
z"/>
<path fill="#25B7A4" opacity="1.000000" stroke="none" 
	d="
M309.171387,138.913040 
	C308.297852,138.770981 307.780518,138.595428 307.296783,137.873611 
	C311.326965,130.597244 310.832977,123.404869 305.999176,117.945633 
	C306.015625,117.728920 306.032043,117.512215 306.079895,116.970589 
	C311.907745,117.645332 314.941956,120.444389 315.833313,125.614182 
	C316.837006,131.435440 314.838684,135.639297 309.171387,138.913040 
z"/>
<path fill="#515150" opacity="1.000000" stroke="none" 
	d="
M181.997772,139.037933 
	C181.997772,139.037933 181.993134,139.446762 181.989746,139.651154 
	C178.865326,139.596954 175.744278,139.338364 173.222015,138.626419 
	C173.887299,130.842148 173.953781,123.511253 174.020279,116.180351 
	C175.396927,116.171204 176.773575,116.162048 178.576752,116.623512 
	C178.971985,123.030289 178.859421,128.968018 178.973679,134.901382 
	C178.998367,136.184387 179.838928,137.451691 180.585312,138.781296 
	C181.243881,138.903549 181.620834,138.970749 181.997772,139.037933 
z"/>
<path fill="#515150" opacity="1.000000" stroke="none" 
	d="
M122.214577,138.922379 
	C119.648232,138.991989 117.081894,139.061584 115.142609,138.709076 
	C115.865959,130.920837 115.962250,123.554710 116.058548,116.188576 
	C117.414726,116.176903 118.770905,116.165222 120.584885,116.624573 
	C120.994141,122.891563 120.855606,128.689133 120.959030,134.482391 
	C120.985580,135.969391 121.775406,137.442749 122.214577,138.922379 
z"/>
<path fill="#515150" opacity="1.000000" stroke="none" 
	d="
M96.073296,116.268845 
	C97.422379,116.234756 98.771454,116.200676 100.513031,116.668198 
	C100.887955,121.609230 100.724709,126.054604 100.905525,130.485931 
	C101.020584,133.305603 101.646263,136.104431 102.042984,138.912598 
	C99.481430,139.041031 96.919868,139.169449 95.019722,138.880569 
	C95.811852,131.065125 95.942574,123.666985 96.073296,116.268845 
z"/>
<path fill="#20B39B" opacity="1.000000" stroke="none" 
	d="
M407.074402,116.244362 
	C408.422607,116.219246 409.770813,116.194138 411.540985,116.657486 
	C411.958801,122.253914 411.831696,127.366142 412.008759,132.467819 
	C412.083588,134.623001 412.798798,136.755936 413.222931,138.898987 
	C410.708862,139.397873 408.194824,139.896759 406.969147,140.139984 
	C406.969147,132.776840 406.969147,125.821846 407.005066,118.123032 
	C407.052124,117.000923 407.063263,116.622643 407.074402,116.244362 
z"/>
<path fill="#1CB4A0" opacity="1.000000" stroke="none" 
	d="
M433.755707,138.824997 
	C431.271118,139.024643 428.786499,139.224289 426.900208,138.932983 
	C427.688751,131.024109 427.879028,123.606186 428.069275,116.188255 
	C429.420868,116.179161 430.772461,116.170067 432.577820,116.626526 
	C433.272949,124.336388 433.514343,131.580688 433.755707,138.824997 
z"/>
<path fill="#D2ECE4" opacity="1.000000" stroke="none" 
	d="
M380.029114,125.036636 
	C385.839813,124.199158 384.132782,129.044327 385.148743,131.824310 
	C381.489136,133.624710 378.076569,135.225082 374.237122,137.025635 
	C376.027496,133.201630 377.907806,129.185425 380.029114,125.036636 
z"/>
<path fill="#5BCBC8" opacity="1.000000" stroke="none" 
	d="
M413.152893,138.440826 
	C412.798798,136.755936 412.083588,134.623001 412.008759,132.467819 
	C411.831696,127.366142 411.958801,122.253914 411.944061,116.695145 
	C414.558716,116.244354 417.192261,116.244354 420.322021,116.244354 
	C420.493103,117.718109 420.669830,119.240189 420.834351,120.657280 
	C418.417206,119.515442 416.174164,118.455841 413.082825,116.995514 
	C413.082825,124.805519 413.082825,131.394089 413.152893,138.440826 
z"/>
<path fill="#84C9AD" opacity="1.000000" stroke="none" 
	d="
M278.075134,138.231323 
	C277.743408,136.882751 276.987610,135.109955 276.939056,133.318008 
	C276.792816,127.918861 276.921753,122.512253 276.924988,116.654976 
	C280.023743,116.201401 283.140900,116.201401 286.668823,116.201401 
	C286.530731,117.282608 286.386932,118.408569 286.291260,119.157745 
	C283.569244,118.631248 281.106140,118.154831 277.974365,117.549072 
	C277.974365,124.767723 277.974365,131.283035 278.075134,138.231323 
z"/>
<path fill="#72747B" opacity="1.000000" stroke="none" 
	d="
M101.957504,138.457947 
	C101.646263,136.104431 101.020584,133.305603 100.905525,130.485931 
	C100.724709,126.054604 100.887955,121.609230 100.915192,116.719330 
	C103.524796,116.268845 106.124718,116.268845 108.973953,116.268845 
	C108.973953,118.096832 108.973953,119.686623 108.973953,120.778236 
	C107.041122,119.694275 104.951889,118.522598 101.872032,116.795364 
	C101.872032,124.910988 101.872032,131.457138 101.957504,138.457947 
z"/>
<path fill="#8097AD" opacity="1.000000" stroke="none" 
	d="
M122.142143,138.471039 
	C121.775406,137.442749 120.985580,135.969391 120.959030,134.482391 
	C120.855606,128.689133 120.994141,122.891563 120.991440,116.642136 
	C121.895660,116.122902 122.851128,116.057129 123.100777,116.039948 
	C122.571213,119.401947 122.044685,122.744682 121.387970,126.913879 
	C124.433678,126.913879 126.660843,126.913879 129.314011,126.950394 
	C129.801529,127.403427 129.863052,127.819954 129.874725,128.545731 
	C127.399055,128.854980 124.973251,128.854980 122.069710,128.854980 
	C122.069710,132.236557 122.069710,135.128128 122.142143,138.471039 
z"/>
<path fill="#4DCED7" opacity="1.000000" stroke="none" 
	d="
M487.308411,139.425476 
	C486.888641,136.018066 486.576080,132.881607 486.109222,129.400085 
	C486.399445,126.953964 486.987885,124.870270 487.244110,122.746506 
	C487.459564,120.960403 487.288422,119.127670 487.288422,117.315575 
	C487.837799,117.329041 488.387177,117.342506 488.936554,117.355965 
	C488.936554,124.761429 488.939331,132.166931 488.873779,139.571808 
	C488.873383,139.617630 487.922546,139.655060 487.308411,139.425476 
z"/>
<path fill="#72747B" opacity="1.000000" stroke="none" 
	d="
M95.646210,116.164215 
	C95.942574,123.666985 95.811852,131.065125 95.327347,138.689484 
	C94.973572,132.151505 94.973572,125.387314 94.973572,118.482330 
	C92.853897,118.098984 90.599251,117.691231 88.344612,117.283470 
	C88.391235,116.875511 88.437866,116.467545 88.484489,116.059578 
	C90.729362,116.059578 92.974243,116.059578 95.646210,116.164215 
z"/>
<path fill="#7D9BB8" opacity="1.000000" stroke="none" 
	d="
M180.303680,138.726227 
	C179.838928,137.451691 178.998367,136.184387 178.973679,134.901382 
	C178.859421,128.968018 178.971985,123.030289 178.989532,116.638229 
	C181.128677,116.269188 183.281586,116.356033 185.756012,116.679703 
	C185.161240,117.048050 184.244934,117.179573 182.684113,117.634094 
	C181.333908,118.802856 180.026535,119.643288 180.018982,120.495224 
	C179.965195,126.570908 180.176620,132.648941 180.303680,138.726227 
z"/>
<path fill="#84C9AD" opacity="1.000000" stroke="none" 
	d="
M271.751617,116.104431 
	C271.897461,123.622475 271.701813,131.041016 271.132416,138.669525 
	C270.848053,131.313904 272.297821,123.645058 269.674683,116.004936 
	C269.834137,116.004936 270.622101,116.004936 271.751617,116.104431 
z"/>
<path fill="#91C9AB" opacity="1.000000" stroke="none" 
	d="
M427.728180,116.090729 
	C427.879028,123.606186 427.688751,131.024109 427.127319,138.653564 
	C426.803986,131.303375 428.253235,123.634186 425.673126,115.993195 
	C425.813385,115.993195 426.600220,115.993195 427.728180,116.090729 
z"/>
<path fill="#7D9BB8" opacity="1.000000" stroke="none" 
	d="
M173.696899,116.078568 
	C173.953781,123.511253 173.887299,130.842148 173.535858,138.396210 
	C173.099472,131.193542 174.274277,123.639023 172.446655,116.044914 
	C171.841293,116.089409 172.607407,116.033096 173.696899,116.078568 
z"/>
<path fill="#8097AD" opacity="1.000000" stroke="none" 
	d="
M115.731522,116.085297 
	C115.962250,123.554710 115.865959,130.920837 115.454010,138.508118 
	C114.897980,131.278046 116.967331,123.616203 113.703278,116.099579 
	C113.856705,116.088982 114.630600,116.035500 115.731522,116.085297 
z"/>
<path fill="#8097AD" opacity="1.000000" stroke="none" 
	d="
M63.717972,116.078133 
	C63.949413,123.545769 63.852634,130.912781 63.443165,138.502579 
	C64.325119,124.157753 63.854790,119.010696 60.735455,116.158310 
	C61.843914,116.082809 62.616829,116.030159 63.717972,116.078133 
z"/>
<path fill="#91C9AB" opacity="1.000000" stroke="none" 
	d="
M433.778992,138.379517 
	C433.514343,131.580688 433.272949,124.336388 432.983154,116.639252 
	C433.875610,116.143410 434.816528,116.100410 434.745636,116.103645 
	C432.710724,123.309258 434.122223,130.700409 433.778992,138.379517 
z"/>
<path fill="#5BCBC8" opacity="1.000000" stroke="none" 
	d="
M406.634796,116.140594 
	C407.063263,116.622643 407.052124,117.000923 406.967163,117.651016 
	C404.369141,118.745346 401.844940,119.567871 399.275146,120.405258 
	C399.275146,119.806610 399.275146,118.251091 399.275146,116.036819 
	C401.670441,116.036819 403.932831,116.036819 406.634796,116.140594 
z"/>
<path fill="#8097AD" opacity="1.000000" stroke="none" 
	d="
M73.678940,116.122414 
	C74.041481,116.607086 73.988823,116.963287 73.497185,117.624207 
	C72.003174,118.762505 70.187714,119.482742 70.043213,120.452072 
	C69.685249,122.853409 70.091293,125.368652 70.190384,127.838127 
	C69.791077,124.249443 69.391777,120.660751 68.971786,116.625771 
	C70.388641,116.117630 71.826195,116.055786 73.678940,116.122414 
z"/>
<path fill="#F2F8F7" opacity="1.000000" stroke="none" 
	d="
M451.431458,117.062088 
	C450.646454,116.641846 450.191193,116.252365 449.394165,115.817245 
	C451.305115,115.877663 453.557892,115.983719 455.906433,116.440010 
	C455.662415,116.995674 455.322601,117.201111 454.947998,117.706299 
	C453.862518,117.701653 452.811859,117.397255 451.431458,117.062088 
z"/>
<path fill="#F2F6F6" opacity="1.000000" stroke="none" 
	d="
M40.905212,133.720184 
	C40.674244,130.522995 40.494675,126.851036 40.609783,122.835274 
	C40.921844,126.076126 40.939232,129.660782 40.905212,133.720184 
z"/>
<path fill="#F2F6F6" opacity="1.000000" stroke="none" 
	d="
M149.905212,133.720154 
	C149.674240,130.522949 149.494690,126.850983 149.609833,122.835236 
	C149.921875,126.076096 149.939255,129.660751 149.905212,133.720154 
z"/>
<path fill="#F2F6F6" opacity="1.000000" stroke="none" 
	d="
M204.905212,133.720154 
	C204.674240,130.522949 204.494690,126.850983 204.609833,122.835236 
	C204.921890,126.076096 204.939255,129.660751 204.905212,133.720154 
z"/>
<path fill="#D2ECE4" opacity="1.000000" stroke="none" 
	d="
M372.748199,139.126221 
	C372.829926,139.396072 372.735901,139.778015 372.536346,139.844849 
	C372.349884,139.907303 372.051361,139.635361 371.802185,139.510590 
	C372.043579,139.373978 372.284973,139.237366 372.748199,139.126221 
z"/>
<path fill="#F2F8F7" opacity="1.000000" stroke="none" 
	d="
M457.712830,132.243011 
	C457.869934,132.931717 457.757843,133.857407 457.399353,135.040359 
	C457.249817,134.358414 457.346710,133.419189 457.712830,132.243011 
z"/>
<path fill="#F2F6F6" opacity="1.000000" stroke="none" 
	d="
M215.113724,121.935799 
	C215.443832,122.458084 215.734650,123.350365 215.959717,124.597633 
	C215.620773,124.070351 215.347610,123.188065 215.113724,121.935799 
z"/>
<path fill="#F2F6F6" opacity="1.000000" stroke="none" 
	d="
M160.113724,121.935799 
	C160.443832,122.458084 160.734650,123.350365 160.959717,124.597633 
	C160.620773,124.070343 160.347610,123.188065 160.113724,121.935799 
z"/>
<path fill="#F2F6F6" opacity="1.000000" stroke="none" 
	d="
M51.113720,121.935791 
	C51.443832,122.458084 51.734665,123.350365 51.959717,124.597626 
	C51.620766,124.070343 51.347599,123.188057 51.113720,121.935791 
z"/>
<path fill="#F2F8F7" opacity="1.000000" stroke="none" 
	d="
M457.097961,121.127762 
	C457.451172,121.615112 457.760437,122.456581 458.016174,123.642563 
	C457.659729,123.152000 457.356842,122.316940 457.097961,121.127762 
z"/>
<path fill="#F2F8F7" opacity="1.000000" stroke="none" 
	d="
M446.484009,125.670914 
	C446.311279,125.272484 446.351227,124.630287 446.616455,123.742386 
	C446.793365,124.140167 446.745026,124.783653 446.484009,125.670914 
z"/>
<path fill="#F2F8F7" opacity="1.000000" stroke="none" 
	d="
M446.889130,133.012619 
	C446.634277,132.771423 446.419403,132.231476 446.265503,131.399933 
	C446.527344,131.643509 446.728210,132.178696 446.889130,133.012619 
z"/>
<path fill="#F2F6F6" opacity="1.000000" stroke="none" 
	d="
M51.596180,132.299103 
	C51.770023,132.716965 51.709972,133.365341 51.402863,134.242844 
	C51.224628,133.824524 51.293457,133.177078 51.596180,132.299103 
z"/>
<path fill="#F2F6F6" opacity="1.000000" stroke="none" 
	d="
M160.596191,132.299103 
	C160.770035,132.716965 160.709991,133.365326 160.402908,134.242813 
	C160.224670,133.824478 160.293488,133.177048 160.596191,132.299103 
z"/>
<path fill="#F2F6F6" opacity="1.000000" stroke="none" 
	d="
M215.596191,132.299103 
	C215.770035,132.716965 215.709991,133.365326 215.402908,134.242813 
	C215.224686,133.824478 215.293503,133.177048 215.596191,132.299103 
z"/>
<path fill="#595C5E" opacity="1.000000" stroke="none" 
	d="
M241.004837,123.009117 
	C241.007172,123.006081 241.189270,122.913910 241.189270,122.913910 
	C241.189270,122.913910 240.953186,122.876778 240.987915,122.939819 
	C241.022644,123.002853 241.002502,123.012154 241.004837,123.009117 
z"/>
<path fill="#8097AD" opacity="1.000000" stroke="none" 
	d="
M77.870758,116.848953 
	C78.025368,117.005547 77.616585,117.085342 77.616585,117.085342 
	C77.616585,117.085342 77.210396,116.993195 77.049568,116.861176 
	C77.155983,116.525520 77.431793,116.513252 77.870758,116.848953 
z"/>
<path fill="#1BB098" opacity="1.000000" stroke="none" 
	d="
M286.060730,26.062302 
	C286.060791,34.490456 286.060791,42.428783 286.060791,51.078331 
	C280.144653,51.078331 274.725891,51.078335 269.307129,51.078335 
	C263.842316,51.078335 258.377472,51.078331 252.499954,51.078331 
	C252.499954,40.021053 252.499954,29.343891 252.499954,18.307789 
	C263.485168,18.307789 274.358582,18.307789 286.060669,18.307789 
	C286.060669,20.747023 286.060669,23.159746 286.060730,26.062302 
M282.022858,31.536554 
	C282.022858,28.458067 282.022858,25.379580 282.022858,22.414356 
	C272.939728,22.414356 264.725006,22.414356 256.484558,22.414356 
	C256.484558,30.745499 256.484558,38.643959 256.484558,46.707611 
	C265.061829,46.707611 273.278503,46.707611 282.022888,46.707611 
	C282.022888,41.761501 282.022888,37.141815 282.022858,31.536554 
z"/>
<path fill="#F3F1EE" opacity="1.000000" stroke="none" 
	d="
M70.558121,127.851517 
	C70.091293,125.368652 69.685249,122.853409 70.043213,120.452072 
	C70.187714,119.482742 72.003174,118.762505 73.480072,117.894058 
	C74.675293,120.097832 76.271454,122.473030 75.930595,124.526726 
	C75.706139,125.879082 72.691238,126.768303 70.558121,127.851517 
z"/>
<path fill="#F1F5F2" opacity="1.000000" stroke="none" 
	d="
M305.543457,117.913330 
	C310.832977,123.404869 311.326965,130.597244 307.144714,137.637894 
	C305.570282,138.251862 304.181580,138.555298 301.831543,139.068787 
	C301.831543,132.196808 301.742920,125.886368 301.973572,119.587608 
	C301.995758,118.981552 304.002319,118.448158 305.543457,117.913330 
z"/>
<path fill="#F6F5F2" opacity="1.000000" stroke="none" 
	d="
M180.585312,138.781296 
	C180.176620,132.648941 179.965195,126.570908 180.018982,120.495224 
	C180.026535,119.643288 181.333908,118.802856 182.454620,117.897781 
	C189.424301,122.730110 189.288681,134.573578 182.314163,138.879089 
	C181.620834,138.970749 181.243881,138.903549 180.585312,138.781296 
z"/>
<path fill="#4A5151" opacity="1.000000" stroke="none" 
	d="
M282.022888,32.029343 
	C282.022888,37.141815 282.022888,41.761501 282.022888,46.707611 
	C273.278503,46.707611 265.061829,46.707611 256.484558,46.707611 
	C256.484558,38.643959 256.484558,30.745499 256.484558,22.414356 
	C264.725006,22.414356 272.939728,22.414356 282.022858,22.414356 
	C282.022858,25.379580 282.022858,28.458067 282.022888,32.029343 
z"/>
</svg>